<svg version="1.1" id="Layer_1" xmlns="http://www.w3.org/2000/svg" xmlns:xlink="http://www.w3.org/1999/xlink" x="0px" y="0px"
	 width="100%" viewBox="0 0 913 417" enable-background="new 0 0 913 417" xml:space="preserve">
<path fill="rgba(255,160,0,.7)" opacity="1.000000" stroke="none" 
	d="
M560.000000,408.000000 
	C519.013855,408.000000 478.526611,407.848846 438.042511,408.136353 
	C430.562134,408.189514 424.854523,402.379944 424.872589,395.070709 
	C425.074432,313.432465 425.080780,231.793320 424.864899,150.155136 
	C424.845093,142.658234 430.459473,136.824905 438.316132,136.856644 
	C501.626770,137.112534 564.938904,137.000000 628.250610,137.000000 
	C630.245483,137.000000 632.240356,137.000000 635.000000,137.000000 
	C635.000000,135.126938 635.000000,133.382019 635.000000,131.637100 
	C635.000000,96.482452 635.178284,61.326183 634.858276,26.174446 
	C634.789490,18.620817 640.469604,12.542292 648.302795,12.859695 
	C661.110779,13.378675 673.977661,13.455505 686.774963,12.818747 
	C693.769775,12.470704 699.091614,18.231796 699.982300,25.228979 
	C700.086609,26.048889 699.999695,26.893282 699.999695,27.726328 
	C699.999817,149.518005 700.030029,271.309723 699.853088,393.101166 
	C699.847778,396.738495 698.462402,400.992615 696.255859,403.813629 
	C694.465271,406.102814 690.479126,407.809937 687.455017,407.828064 
	C645.137878,408.081451 602.818665,407.999969 560.000000,408.000000 
M552.500000,348.000000 
	C579.913696,348.000000 607.327332,348.000000 634.665771,348.000000 
	C634.665771,299.317505 634.665771,251.274796 634.665771,203.225677 
	C633.852966,203.126831 633.369324,203.016632 632.885742,203.016525 
	C589.074890,203.005661 545.264038,202.984390 501.453247,203.020813 
	C494.968750,203.026199 490.033630,208.004822 490.003113,214.509842 
	C489.936554,228.688187 489.981964,242.867065 489.981842,257.045715 
	C489.981720,272.557007 489.981781,288.068329 489.981842,303.579620 
	C489.981873,314.240814 489.965637,324.902069 489.987366,335.563232 
	C490.003418,343.425232 494.606354,347.988403 502.525116,347.995544 
	C518.850098,348.010254 535.175049,348.000000 552.500000,348.000000 
z"/>
</svg>