<svg version="1.1" id="Layer_1" xmlns="http://www.w3.org/2000/svg" xmlns:xlink="http://www.w3.org/1999/xlink" x="0px" y="0px"
	 width="100%" viewBox="0 0 913 417" enable-background="new 0 0 913 417" xml:space="preserve">
<path fill="rgba(0, 0, 0, .78)" opacity="1.000000" stroke="none" 
	d="
M875.999878,407.999390 
	C799.517456,407.999542 723.535034,408.000702 647.552551,407.998779 
	C636.939148,407.998505 634.004883,405.029236 634.003296,394.310059 
	C634.001099,379.169373 634.002747,364.028687 634.002747,348.157074 
	C636.289368,348.157074 638.220886,348.151672 640.152405,348.157867 
	C702.801453,348.358826 765.450439,348.560638 828.099487,348.762848 
	C837.438110,348.792999 841.434509,344.905640 841.557800,335.472107 
	C841.649231,328.476318 841.621582,321.478088 841.570312,314.481537 
	C841.528564,308.788574 838.693604,304.946747 833.085266,303.729980 
	C829.707825,302.997223 826.151917,302.846649 822.675903,302.843628 
	C764.689453,302.793304 706.702881,302.808899 648.716370,302.806702 
	C638.555420,302.806335 635.008423,299.232697 635.006592,288.936035 
	C634.998413,243.279892 634.998169,197.623764 635.006775,151.967621 
	C635.008606,142.238068 638.656006,138.323624 648.292786,137.667145 
	C649.786255,137.565414 651.289368,137.582794 652.788025,137.582733 
	C731.936401,137.579102 811.084839,137.578125 890.233215,137.581100 
	C901.684509,137.581528 904.995239,140.932907 904.996765,152.490372 
	C904.998779,167.153656 904.997253,181.816940 904.997253,196.480225 
	C904.997253,198.112518 904.997253,199.744797 904.997253,202.040161 
	C902.646851,202.040161 900.714600,202.046478 898.782349,202.039230 
	C836.632812,201.806412 774.483276,201.573547 712.333740,201.337006 
	C702.610291,201.300003 699.045654,204.796249 699.039551,214.423996 
	C699.034546,222.255524 699.033936,230.087051 699.044312,237.918564 
	C699.053223,244.605118 701.835327,248.025177 708.414307,249.253006 
	C710.034729,249.555435 711.727356,249.543823 713.387329,249.550705 
	C771.873108,249.793137 830.359070,250.008087 888.844666,250.288010 
	C891.644775,250.301407 894.547424,250.499649 897.218201,251.259232 
	C902.238403,252.686981 904.987000,256.183105 904.987305,261.569641 
	C904.990051,306.725861 905.020508,351.882141 904.963318,397.038300 
	C904.954773,403.808533 900.819885,407.824585 893.994812,407.971100 
	C888.165649,408.096222 882.331726,407.998505 875.999878,407.999390 
z"/>
<path fill="rgba(0, 0, 0, .78)" opacity="1.000000" stroke="none" 
	d="
M219.522858,173.999786 
	C219.523529,165.999878 219.487183,158.499741 219.534714,151.000137 
	C219.590561,142.189514 224.013428,137.603989 232.675644,137.601013 
	C313.841187,137.573135 395.006744,137.574692 476.172302,137.598175 
	C484.912689,137.600693 489.457031,142.125748 489.459747,150.848038 
	C489.484955,232.180252 489.483917,313.512451 489.461548,394.844666 
	C489.459076,403.780884 485.191956,407.973480 476.270172,407.991211 
	C463.770355,408.016052 451.270477,408.014984 438.770660,407.991608 
	C429.905121,407.975006 425.286163,403.404999 425.124176,394.461456 
	C425.045715,390.129578 425.110352,385.795166 425.110321,381.461884 
	C425.110260,326.462646 425.111420,271.463379 425.108978,216.464142 
	C425.108521,206.668823 421.383179,203.009415 411.434082,203.008148 
	C404.600861,203.007278 397.767456,202.980789 390.934418,203.017105 
	C383.946472,203.054245 379.460297,207.484482 379.236145,214.517288 
	C379.193695,215.848999 379.244781,217.183548 379.244812,218.516785 
	C379.245544,279.682617 379.245422,340.848419 379.245392,402.014252 
	C379.245392,403.834839 379.245392,405.655396 379.245392,407.830322 
	C360.998627,407.830322 342.958801,407.830322 324.523041,407.830322 
	C324.523041,405.718323 324.523041,403.758026 324.523010,401.797699 
	C324.522369,340.131866 324.521271,278.466064 324.521576,216.800247 
	C324.521606,207.378311 320.211182,203.015152 310.875763,203.008942 
	C303.709198,203.004181 296.542480,202.979279 289.376099,203.017426 
	C282.456726,203.054260 278.230103,207.159882 277.896332,214.107330 
	C277.840393,215.271286 277.889771,216.440247 277.889771,217.606903 
	C277.889801,279.106049 277.889709,340.605225 277.889587,402.104370 
	C277.889587,403.911804 277.889557,405.719269 277.889557,408.185516 
	C272.862640,408.185516 268.100647,408.185516 263.338684,408.185486 
	C253.672150,408.185455 244.005630,408.189514 234.339096,408.184235 
	C223.547058,408.178345 219.527237,404.207458 219.526382,393.496796 
	C219.520599,320.497803 219.523117,247.498795 219.522858,173.999786 
z"/>
<path fill="rgba(0, 0, 0, .78)" opacity="1.000000" stroke="none" 
	d="
M106.491348,264.510437 
	C77.075203,235.515213 47.908310,206.770615 18.789732,178.073639 
	C32.702396,164.591476 45.551842,152.139648 58.914608,139.190369 
	C73.524689,153.961609 89.125893,169.883438 104.893440,185.638794 
	C124.570320,205.300430 144.429688,224.779312 164.124832,244.422791 
	C180.458176,260.713287 180.578079,283.229858 164.296555,299.490448 
	C128.821579,334.919769 93.232567,370.234924 57.683426,405.589966 
	C56.874119,406.394867 55.984646,407.119141 55.550499,407.507355 
	C43.214882,395.090332 31.060312,382.855560 18.181828,369.892059 
	C33.652840,354.601074 50.017792,338.536713 66.256592,322.345825 
	C82.529037,306.121399 98.675545,289.770721 115.822289,272.524872 
	C112.814369,269.953461 109.777489,267.357269 106.491348,264.510437 
z"/>
<path fill="rgba(255,160,0,.8)" opacity="1.000000" stroke="none" 
	d="
M560.000000,408.000000 
	C519.013855,408.000000 478.526611,407.848846 438.042511,408.136353 
	C430.562134,408.189514 424.854523,402.379944 424.872589,395.070709 
	C425.074432,313.432465 425.080780,231.793320 424.864899,150.155136 
	C424.845093,142.658234 430.459473,136.824905 438.316132,136.856644 
	C501.626770,137.112534 564.938904,137.000000 628.250610,137.000000 
	C630.245483,137.000000 632.240356,137.000000 635.000000,137.000000 
	C635.000000,135.126938 635.000000,133.382019 635.000000,131.637100 
	C635.000000,96.482452 635.178284,61.326183 634.858276,26.174446 
	C634.789490,18.620817 640.469604,12.542292 648.302795,12.859695 
	C661.110779,13.378675 673.977661,13.455505 686.774963,12.818747 
	C693.769775,12.470704 699.091614,18.231796 699.982300,25.228979 
	C700.086609,26.048889 699.999695,26.893282 699.999695,27.726328 
	C699.999817,149.518005 700.030029,271.309723 699.853088,393.101166 
	C699.847778,396.738495 698.462402,400.992615 696.255859,403.813629 
	C694.465271,406.102814 690.479126,407.809937 687.455017,407.828064 
	C645.137878,408.081451 602.818665,407.999969 560.000000,408.000000 
M552.500000,348.000000 
	C579.913696,348.000000 607.327332,348.000000 634.665771,348.000000 
	C634.665771,299.317505 634.665771,251.274796 634.665771,203.225677 
	C633.852966,203.126831 633.369324,203.016632 632.885742,203.016525 
	C589.074890,203.005661 545.264038,202.984390 501.453247,203.020813 
	C494.968750,203.026199 490.033630,208.004822 490.003113,214.509842 
	C489.936554,228.688187 489.981964,242.867065 489.981842,257.045715 
	C489.981720,272.557007 489.981781,288.068329 489.981842,303.579620 
	C489.981873,314.240814 489.965637,324.902069 489.987366,335.563232 
	C490.003418,343.425232 494.606354,347.988403 502.525116,347.995544 
	C518.850098,348.010254 535.175049,348.000000 552.500000,348.000000 
z"/>
</svg>