<?xml version="1.0" encoding="UTF-8" standalone="no"?>
<svg width="36px" height="16px" viewBox="0 0 36 16" version="1.1" xmlns="http://www.w3.org/2000/svg" xmlns:xlink="http://www.w3.org/1999/xlink" xmlns:sketch="http://www.bohemiancoding.com/sketch/ns">
    <!-- Generator: Sketch 3.1.1 (8761) - http://www.bohemiancoding.com/sketch -->
    <title>Imported Layers + Launch an app in a j 2</title>
    <desc>Created with Sketch.</desc>
    <defs></defs>
    <g id="Welcome" stroke="none" stroke-width="1" fill="none" fill-rule="evenodd" sketch:type="MSPage">
        <g id="Desktop-HD" sketch:type="MSArtboardGroup" transform="translate(-103.000000, -1499.000000)" fill="#FF4833">
            <g id="2" sketch:type="MSLayerGroup" transform="translate(65.000000, 1435.000000)">
                <g id="Group-+-Group-2" transform="translate(18.000000, 48.000000)" sketch:type="MSShapeGroup">
                    <g id="Group">
                        <g id="Imported-Layers-+-Launch-an-app-in-a-j-2-+-Search-in-apps" transform="translate(20.000000, 16.000000)">
                            <g id="Imported-Layers-+-Launch-an-app-in-a-j-2">
                                <path d="M33.9996878,4 C32.8990167,4 32,3.1009833 32,2.00031216 C32,0.876541283 32.8990167,0 33.9996878,0 C35.1234587,0 36,0.876541283 36,2.00031216 C36,3.1009833 35.1234587,4 33.9996878,4 L33.9996878,4 Z M28.8190969,4.1965919 L28.8190969,5.13658962 L36,5.13658962 L36,16 L32.7593843,16 L32.7593843,7.93411515 L28.8190969,7.93411515 L28.8190969,16 L25.5996655,16 L25.5996655,7.93411515 L21.8929943,7.93411515 L21.8929943,16 L18.6735629,16 L18.6735629,7.93411515 L17,7.93411515 L17,5.13658962 L18.6735629,5.13658962 L18.6735629,4.1965919 C18.6735629,1.70511215 20.134694,0 22.6979993,0 C23.2276078,0 23.926691,0.109302061 24.2226833,0.262324946 L24.2226833,2.95054841 C24.0532086,2.90682758 23.7572163,2.84124635 23.2699765,2.84124635 C22.6556306,2.84124635 21.8929943,3.10357129 21.8929943,4.1965919 L21.8929943,5.13658962 L25.5996655,5.13658962 L25.5996655,4.1965919 C25.5996655,1.70511215 27.061385,0 29.6029175,0 C30.1537104,0 30.8527936,0.0874416486 31.1493744,0.240464534 L31.1493744,2.95054841 C30.9798997,2.90682758 30.6621345,2.84124635 30.196079,2.84124635 C29.6241018,2.84124635 28.8190969,3.10357129 28.8190969,4.1965919 L28.8190969,4.1965919 Z M13.9778367,4 C12.8990167,4 12,3.1009833 12,2.00031216 C12,0.8990167 12.8990167,0 13.9778367,0 C15.1016076,0 16,0.8990167 16,2.00031216 C16,3.1009833 15.1016076,4 13.9778367,4 L13.9778367,4 Z M4.96825674,16 C2.03331586,16 0,14.0729826 0,11.1519512 L0,10.1780822 L3.14462112,9.63934615 L3.14462112,10.9861863 C3.14462112,12.2910096 3.98334207,12.8919074 4.94787116,12.8919074 C6.03762595,12.8919074 6.68763469,12.104524 6.68763469,11.0069069 L6.68763469,1 L10,1 L10,11.0897893 C10,13.7621734 7.92474809,16 4.96825674,16 L4.96825674,16 Z M12,5 L15,5 L15,16 L12,16 L12,5 Z" id="Imported-Layers"></path>
                            </g>
                        </g>
                    </g>
                </g>
            </g>
        </g>
    </g>
</svg>