<?xml version="1.0" standalone="no"?>
<!DOCTYPE svg PUBLIC "-//W3C//DTD SVG 1.1//EN" "http://www.w3.org/Graphics/SVG/1.1/DTD/svg11.dtd" >
<svg xmlns="http://www.w3.org/2000/svg">
<metadata></metadata>
<defs>
<font id="gibsonregular" horiz-adv-x="1200" >
<font-face units-per-em="2048" ascent="1638" descent="-410" />
<missing-glyph horiz-adv-x="407" />
<glyph unicode="&#xfb01;" horiz-adv-x="1062" d="M950 1292q0 -53 -36 -87t-93 -34q-55 0 -91 34t-36 87t36 87t91 34q57 0 93 -34t36 -87zM920 973v-973h-195v973h195zM633 1413l-15 -145q-47 18 -102 18q-31 0 -55 -8.5t-39.5 -20t-26.5 -33.5t-16.5 -39t-8 -47.5t-3 -47t-0.5 -49.5v-11v-59h231v-158h-231v-813h-195 v813h-139v158h139v98q0 186 66 260q43 49 98.5 78t142.5 29q36 0 74.5 -6t58.5 -12z" />
<glyph unicode="&#xfb02;" horiz-adv-x="1067" d="M922 1413v-1413h-197v1413h197zM633 1413l-15 -145q-41 18 -102 18q-46 0 -77 -16t-46 -47t-20.5 -64t-5.5 -80v-108h231v-158h-231v-813h-195v813h-139v158h139v106q0 155 61 246q36 49 98.5 81t147.5 32q43 0 81.5 -6t55.5 -12z" />
<glyph unicode="&#xfb03;" horiz-adv-x="1605" d="M1200 1413l-12 -145q-56 18 -111 18q-46 0 -77 -16t-46 -47t-20.5 -64t-5.5 -80v-108h231v-158h-231v-813h-195v813h-366v-813h-195v813h-139v158h139v98q0 178 66 260q87 107 233 107q50 0 92 -6t59 -12l17 -5l-12 -145q-56 18 -111 18q-46 0 -77 -16t-46 -47t-20.5 -64 t-5.5 -80v-108h366v98q0 178 66 260q87 107 233 107q50 0 92 -6t59 -12zM1462 973v-973h-196v973h196zM1491 1292q0 -53 -36 -87t-91 -34q-57 0 -93 34t-36 87t36 87t93 34q55 0 91 -34t36 -87z" />
<glyph unicode="&#xfb04;" horiz-adv-x="1607" d="M1200 1413l-12 -145q-56 18 -111 18q-46 0 -77 -16t-46 -47t-20.5 -64t-5.5 -80v-108h231v-158h-231v-813h-195v813h-366v-813h-195v813h-139v158h139v98q0 178 66 260q87 107 233 107q50 0 92 -6t59 -12l17 -5l-12 -145q-56 18 -111 18q-46 0 -77 -16t-46 -47t-20.5 -64 t-5.5 -80v-108h366v98q0 178 66 260q87 107 233 107q50 0 92 -6t59 -12zM1462 1413v-1413h-194v1413h194z" />
<glyph horiz-adv-x="0" />
<glyph horiz-adv-x="682" />
<glyph horiz-adv-x="0" />
<glyph horiz-adv-x="0" />
<glyph unicode="&#xd;" horiz-adv-x="407" />
<glyph unicode=" "  horiz-adv-x="407" />
<glyph unicode="&#x09;" horiz-adv-x="407" />
<glyph unicode="&#xa0;" horiz-adv-x="407" />
<glyph unicode="!" horiz-adv-x="616" d="M207 1413h205l-19 -1036h-170zM444 106q0 -58 -37.5 -92t-97.5 -34q-61 0 -99 34t-38 92q0 59 38 94.5t99 35.5q59 0 97 -35.5t38 -94.5z" />
<glyph unicode="&#x22;" horiz-adv-x="913" d="M528 1413h189l-23 -438h-145zM197 1413h188l-20 -438h-148z" />
<glyph unicode="#" horiz-adv-x="1222" d="M1147 1030v-127h-248l-47 -309h229v-129h-250l-65 -426h-131l65 426h-272l-68 -426h-131l68 426h-221v129h241l48 309h-224v127h244l68 428h129l-66 -428h272l68 428h131l-67 -428h227zM721 594l47 309h-272l-50 -309h275z" />
<glyph unicode="$" d="M1063 381q0 -91 -40 -167t-105 -126q-107 -86 -246 -100l-2 -150h-115v148q-131 2 -243 69t-175 185l119 112q42 -93 129.5 -150t179.5 -59l2 506l-75 35q-111 51 -160 90q-135 107 -135 281q0 163 120 268q100 86 261 102l2 140h114v-142q221 -18 332 -190l-100 -117 q-42 68 -106.5 109t-135.5 49l-2 -473l123 -58q258 -115 258 -362zM573 842l2 434q-92 -9 -146 -65t-54 -144q0 -78 45 -124.5t121 -84.5zM883 358q0 86 -39.5 137t-116.5 89l-51 24l-2 -467q79 5 144 66.5t65 150.5z" />
<glyph unicode="%" horiz-adv-x="1595" d="M1532 315q0 -151 -94 -245.5t-240 -94.5t-240 94.5t-94 245.5t94 245.5t240 94.5t240 -94.5t94 -245.5zM1184 1446l102 -62l-874 -1431l-103 61zM731 1083q0 -151 -94 -246.5t-240 -95.5t-240 95.5t-94 246.5q0 150 94 245t240 95t240 -95t94 -245zM1389 317 q0 94 -52 153.5t-139 59.5q-86 0 -138 -59.5t-52 -153.5q0 -95 51.5 -154t138.5 -59t139 59t52 154zM588 1083q0 95 -52 154t-139 59t-138.5 -59t-51.5 -154q0 -94 51.5 -152.5t138.5 -58.5t139 59t52 152z" />
<glyph unicode="&#x26;" horiz-adv-x="1415" d="M1401 12v-12h-236l-174 203q-111 -113 -219.5 -170.5t-257.5 -57.5q-191 0 -314.5 105.5t-123.5 290.5q0 80 28.5 147t84.5 120.5t114.5 91.5t142.5 81q-2 3 -23 28t-25.5 30.5t-23 29t-24 34.5t-19.5 33.5t-19 38.5t-12.5 38.5t-10 45t-2.5 46.5q0 136 101 218.5 t259 82.5q156 0 254 -81.5t98 -215.5q0 -204 -280 -361l274 -323q33 38 91 132.5t85 153.5l154 -69q-30 -59 -99.5 -169.5t-119.5 -166.5zM821 1135q0 76 -47 116.5t-125 40.5q-76 0 -125 -45t-49 -121q0 -83 78 -174l57 -65q26 15 40 23.5t44 28.5t48 38.5t38.5 43.5 t30.5 54t10 60zM881 322l-326 376l-59 -32q-47 -27 -78.5 -49t-68.5 -57.5t-56 -80.5t-19 -98q0 -109 75.5 -179.5t189.5 -70.5q102 0 194.5 58.5t147.5 132.5z" />
<glyph unicode="'" horiz-adv-x="622" d="M217 1413h189l-21 -438h-147z" />
<glyph unicode="(" horiz-adv-x="581" d="M526 -236l-125 -67q-301 450 -301 940t301 940l125 -68q-91 -138 -169 -382t-78 -490t78 -490.5t169 -382.5z" />
<glyph unicode=")" horiz-adv-x="581" d="M481 637q0 -493 -303 -940l-125 67q56 85 110 213t96 310t42 350t-42 350t-96 309.5t-110 212.5l125 68q303 -447 303 -940z" />
<glyph unicode="*" horiz-adv-x="1075" d="M874 1274l46 -123l-306 -90l201 -264l-106 -74l-172 278l-170 -278l-107 74l201 264l-305 90l45 123l286 -115l-18 295h137l-18 -295z" />
<glyph unicode="+" horiz-adv-x="1366" d="M1219 782v-151h-459v-459h-152v459h-461v151h461v459h152v-459h459z" />
<glyph unicode="," horiz-adv-x="616" d="M268 217h201l-188 -504h-156z" />
<glyph unicode="-" horiz-adv-x="598" d="M547 643v-164h-496v164h496z" />
<glyph unicode="." horiz-adv-x="616" d="M444 106q0 -58 -37.5 -92t-97.5 -34q-61 0 -99 34t-38 92q0 59 38 94.5t99 35.5q59 0 97 -35.5t38 -94.5z" />
<glyph unicode="/" horiz-adv-x="1064" d="M895 1616l131 -57l-852 -1749l-131 59z" />
<glyph unicode="0" d="M1141 705q0 -113 -19.5 -217t-62 -197.5t-104.5 -163t-153 -110t-202 -40.5t-202 40.5t-153 110t-104.5 163t-62 197.5t-19.5 217t19.5 217.5t62 198.5t104.5 163t153.5 109.5t201.5 40.5q111 0 202 -40.5t153 -109.5t104.5 -163t62 -198.5t19.5 -217.5zM940 709 q0 252 -87.5 404.5t-252.5 152.5t-252.5 -152.5t-87.5 -404.5q0 -164 37 -287.5t114.5 -196.5t188.5 -73t188.5 73t114.5 196.5t37 287.5z" />
<glyph unicode="1" horiz-adv-x="892" d="M596 1413v-1413h-193v1268h-276v145h469z" />
<glyph unicode="2" d="M1110 164v-164h-954l-29 133l500 473q49 47 83 84.5t71 89t56 106.5t19 111q0 122 -79 198.5t-212 76.5q-63 0 -120 -21.5t-99.5 -58t-72 -72t-54.5 -76.5l-104 117q13 29 35.5 61.5t63.5 71.5t90.5 69t121.5 50.5t152 20.5q212 0 342.5 -114.5t130.5 -301.5 q0 -37 -6.5 -73.5t-15 -66.5t-27 -65t-30.5 -57.5t-38 -55l-38 -47.5t-41.5 -44.5t-37 -37.5t-36.5 -35l-29 -26l-363 -346h721z" />
<glyph unicode="3" d="M1075 395q0 -189 -144.5 -302t-365.5 -113q-80 0 -155.5 23.5t-123 51.5t-92.5 69t-59.5 58.5t-28.5 36.5l111 121q13 -16 27 -32.5t50.5 -49.5t73 -56.5t89 -42t104.5 -18.5q142 0 230 69t88 193q0 123 -82.5 189.5t-210.5 66.5h-105v158h105q115 0 184.5 61t69.5 169 t-77 168.5t-190 60.5q-99 0 -178 -42t-159 -120l-93 119q84 93 187 147t260 54q117 0 216.5 -42.5t162.5 -128t63 -196.5q0 -74 -22.5 -133t-60 -95t-72.5 -57t-74 -34v-7q45 -8 90 -32.5t87 -65t68.5 -105.5t26.5 -143z" />
<glyph unicode="4" d="M1159 473v-164h-205v-309h-192v309h-713v146l699 966h206v-948h205zM244 471h520v717z" />
<glyph unicode="5" d="M1079 453q0 -112 -44 -204.5t-117.5 -151t-166.5 -90.5t-194 -32q-94 0 -176.5 24t-138 62t-92 76t-58.5 76l111 115q48 -82 143 -135.5t209 -53.5q62 0 119 19.5t104.5 56.5t76 98.5t28.5 139.5t-28 139.5t-75.5 98.5t-104.5 56t-120 19q-72 0 -141 -20t-109 -56 l-100 60l123 663h710v-160h-567l-74 -374q79 36 201 36q88 0 172 -29.5t154 -85t112.5 -146t42.5 -201.5z" />
<glyph unicode="6" d="M1114 463q0 -136 -57.5 -246.5t-168 -176t-255.5 -65.5q-284 0 -428 244q-99 164 -99 461q0 184 45 328.5t121 238.5q150 187 406 187q72 0 135 -13.5t116.5 -40.5t76 -41t59.5 -42q7 -5 10 -7l-84 -133q-145 121 -311 121q-89 0 -149.5 -32t-112.5 -99 q-121 -158 -121 -451q21 38 51 70.5t75 63.5t111 49t146 18q113 0 211 -51t160.5 -152t62.5 -231zM922 442q0 83 -31.5 151.5t-99.5 113.5t-162 45q-140 0 -218.5 -90.5t-78.5 -219.5q0 -128 78.5 -218.5t218.5 -90.5q94 0 162 44.5t99.5 113t31.5 151.5z" />
<glyph unicode="7" d="M1085 1413l54 -115l-680 -1298h-209l668 1253h-795v160h962z" />
<glyph unicode="8" d="M1087 391q0 -194 -136 -304t-351 -110t-350 109.5t-135 304.5q0 131 71.5 222.5t192.5 129.5v7q-221 84 -221 317q0 113 61.5 197.5t160.5 127t220 42.5t220 -42.5t160.5 -127t61.5 -197.5q0 -73 -20 -130.5t-56 -94t-69 -57t-74 -37.5v-5q121 -40 192.5 -131t71.5 -221z M850 1049q0 107 -70.5 168t-179.5 61t-179.5 -61t-70.5 -168q0 -109 70 -169.5t180 -60.5t180 60.5t70 169.5zM891 406q0 123 -82 195.5t-209 72.5t-209 -72.5t-82 -195.5q0 -122 84 -195.5t207 -73.5q124 0 207.5 73t83.5 196z" />
<glyph unicode="9" d="M1094 729q0 -181 -45 -326t-121 -241q-149 -187 -400 -187q-86 0 -159 16.5t-127.5 47t-74 44t-48.5 38.5l84 131q50 -46 135.5 -81.5t185.5 -35.5q89 0 150.5 31.5t109.5 97.5q119 156 119 457q-19 -39 -49 -73.5t-75.5 -66.5t-112 -50.5t-146.5 -18.5q-112 0 -210 51 t-161 152t-63 231q0 136 57.5 246.5t168 176t255.5 65.5q280 0 428 -244q99 -160 99 -461zM868 971q0 128 -78.5 218.5t-218.5 90.5q-94 0 -161.5 -44.5t-99 -113t-31.5 -151.5t31.5 -151.5t99 -113t161.5 -44.5q140 0 218.5 90.5t78.5 218.5z" />
<glyph unicode=":" horiz-adv-x="616" d="M444 860q0 -58 -38 -93.5t-97 -35.5q-61 0 -99 35.5t-38 93.5t38 93.5t99 35.5q59 0 97 -35.5t38 -93.5zM444 106q0 -58 -37.5 -92t-97.5 -34q-61 0 -99 34t-38 92q0 59 38 94.5t99 35.5q59 0 97 -35.5t38 -94.5z" />
<glyph unicode=";" horiz-adv-x="616" d="M444 860q0 -58 -38 -93.5t-97 -35.5q-61 0 -99 35.5t-38 93.5t38 93.5t99 35.5q59 0 97 -35.5t38 -93.5zM268 217h201l-188 -504h-156z" />
<glyph unicode="&#x3c;" horiz-adv-x="1366" d="M1219 330v-166l-1072 459v168l1072 458v-166l-881 -376z" />
<glyph unicode="=" horiz-adv-x="1366" d="M1219 967v-150h-1072v150h1072zM1219 596v-152h-1072v152h1072z" />
<glyph unicode="&#x3e;" horiz-adv-x="1366" d="M1219 791v-168l-1072 -459v166l881 377l-881 376v166z" />
<glyph unicode="?" horiz-adv-x="1007" d="M893 1098q0 -59 -12.5 -107.5t-41 -90.5t-50 -66t-64.5 -66q-19 -18 -50.5 -47t-47.5 -44.5t-33.5 -37.5t-26.5 -43q-13 -30 -16 -76l-4 -143h-166l-4 145q-1 47 8 88t19.5 67t35 56.5t37.5 44t43 41.5l119 109q66 63 66 149q0 90 -63 141.5t-167 51.5q-93 0 -162 -44 t-106 -108l-86 123q16 29 42 57t71 61.5t115.5 54t154.5 20.5q175 0 282 -99t107 -237zM600 106q0 -58 -37 -92t-98 -34t-98 34t-37 92q0 59 37 94.5t98 35.5t98 -35.5t37 -94.5z" />
<glyph unicode="@" horiz-adv-x="1638" d="M1554 578q0 -129 -43 -239.5t-116 -186.5q-66 -72 -148 -112t-160 -40q-148 0 -172 129q-129 -129 -262 -129q-30 0 -60.5 8t-65 30t-60.5 56t-43.5 91t-17.5 130q0 76 21.5 155t62.5 149.5t95.5 126.5t126.5 89t150 33q49 0 91.5 -10.5t68 -25.5t44 -30t25.5 -26l7 -10 l20 65h133l-174 -546q-16 -52 -19.5 -86.5t13 -58t57.5 -23.5q50 0 104 34t99.5 92t75 145.5t29.5 184.5q0 219 -159.5 364.5t-418.5 145.5q-176 0 -324 -83.5t-236.5 -236t-88.5 -341.5q0 -190 77.5 -335t214 -222.5t310.5 -77.5q294 0 539 156q7 4 10 6l45 -84 q-2 -1 -22 -15.5t-37 -25.5t-50.5 -30t-66.5 -33t-82 -30.5t-99 -27.5t-114.5 -18t-132.5 -7q-150 0 -281 53t-228 148t-152.5 235.5t-55.5 307.5t64 312.5t170.5 244.5t246 156t289.5 57q320 0 518 -188q85 -80 133.5 -190t48.5 -236zM973 375l90 280l-4 6q-4 6 -11 15 t-17 19.5t-26 21t-35.5 19.5t-47 14.5t-58.5 5.5q-132 0 -223 -131q-45 -63 -71.5 -143t-26.5 -154q0 -113 45.5 -160t111.5 -47q32 0 67 12.5t74.5 39.5t74.5 79t57 123z" />
<glyph unicode="A" horiz-adv-x="1331" d="M752 1417l577 -1417h-221l-145 369h-607l-145 -369h-209l576 1417h174zM412 535h495l-248 634z" />
<glyph unicode="B" horiz-adv-x="1202" d="M1122 401q0 -189 -151 -309q-64 -51 -149 -71.5t-208 -20.5h-458v1413h381q114 0 194 -13.5t141 -53.5q152 -97 152 -287q0 -110 -61.5 -195t-153.5 -114v-5q146 -30 229.5 -118.5t83.5 -225.5zM825 1036q0 129 -94 181q-67 38 -194 38h-183v-448h166q79 0 128.5 9 t82.5 34q43 32 68.5 74.5t25.5 111.5zM918 410q0 67 -25 112.5t-78 81.5q-47 32 -106 41.5t-142 9.5h-213v-493h213q57 0 91 2t79 13.5t78 33.5q103 69 103 199z" />
<glyph unicode="C" horiz-adv-x="1361" d="M1229 330l86 -146q-188 -209 -516 -209q-205 0 -369.5 90t-259 257t-94.5 383q0 215 96 382.5t260 257t367 89.5q94 0 177 -18t144.5 -48t103.5 -59t76 -62l-83 -160q-50 63 -163 118t-247 55q-231 0 -378.5 -152t-147.5 -399q0 -246 148 -398.5t378 -152.5 q134 0 241.5 46.5t180.5 125.5z" />
<glyph unicode="D" horiz-adv-x="1404" d="M1329 707q0 -321 -219 -523q-86 -79 -221.5 -131.5t-306.5 -52.5h-426v1413h426q171 0 306.5 -52.5t221.5 -131.5q219 -202 219 -522zM1126 707q0 246 -168 405q-138 131 -376 131h-228v-1071h228q238 0 376 131q168 159 168 404z" />
<glyph unicode="E" horiz-adv-x="1087" d="M999 168v-168h-843v1413h827v-166h-629v-422h594v-166h-594v-491h645z" />
<glyph unicode="F" horiz-adv-x="1011" d="M940 1413v-166h-586v-471h551v-166h-551v-610h-198v1413h784z" />
<glyph unicode="G" horiz-adv-x="1529" d="M1397 754v-549q-49 -49 -78 -71q-206 -159 -522 -159q-150 0 -282.5 53t-229.5 147.5t-153 232t-56 299.5q0 215 96 382t259.5 256t363.5 89q340 0 560 -235l11 -11l-135 -125q-172 201 -436 201q-224 0 -369 -151t-145 -406q0 -128 40.5 -233.5t111.5 -176t167 -109 t207 -38.5q82 0 153 13.5t114 32t74 37.5t44 33l12 13v313h-381v162h574z" />
<glyph unicode="H" horiz-adv-x="1462" d="M1305 1413v-1413h-199v659h-752v-659h-198v1413h198v-584h752v584h199z" />
<glyph unicode="I" horiz-adv-x="509" d="M354 1413v-1413h-198v1413h198z" />
<glyph unicode="J" horiz-adv-x="509" d="M354 1413v-1409q0 -202 -63 -299q-84 -115 -228 -115q-37 0 -74 5.5t-56 11t-23 8.5l4 152q43 -17 109 -17q35 0 59.5 13.5t38.5 35t22 55.5t10.5 66.5t2.5 77.5v1415h198z" />
<glyph unicode="K" horiz-adv-x="1185" d="M633 856l577 -856h-241l-469 709l-146 -148v-561h-198v1413h198v-602l576 602h241z" />
<glyph unicode="L" horiz-adv-x="872" d="M852 170v-170h-696v1413h198v-1243h498z" />
<glyph unicode="M" horiz-adv-x="1748" d="M1528 1413l129 -1413h-197l-92 1116h-6l-432 -1128h-113l-432 1128h-6l-90 -1116h-197l127 1413h246l407 -1091h5l407 1091h244z" />
<glyph unicode="N" horiz-adv-x="1515" d="M1358 1413v-1413h-195l-815 1126q4 -190 4 -374v-752h-196v1413h209l800 -1110q-2 175 -2 361v749h195z" />
<glyph unicode="O" horiz-adv-x="1609" d="M1534 705q0 -166 -58 -304.5t-157.5 -231t-232 -143.5t-281.5 -51t-281.5 51t-232 143.5t-157.5 231t-58 304.5t58 304.5t157.5 230.5t232 143t281.5 51t281.5 -51t232 -143t157.5 -230.5t58 -304.5zM1331 709q0 127 -41.5 232t-113 174.5t-167.5 108t-204 38.5 t-204 -38.5t-167.5 -108t-113 -174.5t-41.5 -232q0 -126 42 -231t113.5 -175t167 -108.5t203.5 -38.5t204 38.5t167.5 108.5t113 175t41.5 231z" />
<glyph unicode="P" horiz-adv-x="1087" d="M1032 1010q0 -188 -137 -303q-117 -101 -342 -101h-199v-606h-198v1413h397q226 0 342 -100q137 -118 137 -303zM827 1010q0 62 -23.5 110t-62.5 76q-76 55 -204 55h-183v-483h183q127 0 204 53q86 65 86 189z" />
<glyph unicode="Q" horiz-adv-x="1609" d="M1534 705q0 -315 -197 -519l156 -178l-129 -114l-162 186q-178 -105 -397 -105q-149 0 -281.5 51t-232 143.5t-157.5 231t-58 304.5t58 304.5t157.5 230.5t232 143t281.5 51t281.5 -51t232 -143t157.5 -230.5t58 -304.5zM1331 709q0 127 -41.5 232t-113 174.5t-167.5 108 t-204 38.5t-204 -38.5t-167.5 -108t-113 -174.5t-41.5 -232q0 -126 42 -231t113.5 -175t167 -108.5t203.5 -38.5q147 0 270 69l-119 135l129 115l121 -139q125 151 125 373z" />
<glyph unicode="R" horiz-adv-x="1105" d="M711 629l403 -629h-240l-368 608h-152v-608h-198v1413h399q215 0 340 -98q137 -111 137 -299q0 -89 -28.5 -160.5t-76.5 -116t-102 -71.5t-114 -39zM827 1012q0 124 -90 188q-43 32 -96.5 41.5t-140.5 9.5h-146v-479h146q87 0 140.5 9t96.5 40q90 67 90 191z" />
<glyph unicode="S" horiz-adv-x="1093" d="M1020 393q0 -91 -39 -170t-109 -137q-136 -111 -346 -111q-71 0 -137 18.5t-110.5 41.5t-91 61.5t-67 60.5t-50.5 56l116 133q62 -83 157.5 -143t201.5 -60q119 0 197.5 64t78.5 174q0 30 -10 58t-21.5 47t-37 39.5t-39 30.5t-46 25.5t-39 18t-36.5 14.5q-167 65 -225 95 q-85 38 -142 100q-92 96 -92 246q0 165 129 272q124 105 326 105q231 0 405 -183l-104 -135q-144 152 -311 152q-109 0 -177.5 -51t-68.5 -146q0 -47 15 -83t44.5 -61t56.5 -40t66 -31l260 -109q31 -14 80 -46t80 -68q86 -105 86 -238z" />
<glyph unicode="T" horiz-adv-x="1026" d="M1010 1413v-166h-398v-1247h-198v1247h-400v166h996z" />
<glyph unicode="U" horiz-adv-x="1366" d="M1221 1413v-835q0 -148 -23 -249.5t-90 -181.5q-149 -172 -424 -172q-278 0 -424 172q-68 80 -91.5 181t-23.5 250v835h201v-817q0 -74 3 -119t18 -102t45 -96q91 -125 272 -125q177 0 272 125q30 39 45 96.5t18 102.5t3 118v817h199z" />
<glyph unicode="V" horiz-adv-x="1220" d="M1010 1413h209l-521 -1415h-176l-520 1415h213l397 -1126z" />
<glyph unicode="W" horiz-adv-x="1902" d="M1683 1413h209l-407 -1415h-195l-340 1143l-338 -1143h-194l-408 1415h209l305 -1114l326 1114h203l325 -1114z" />
<glyph unicode="X" horiz-adv-x="1185" d="M721 729l469 -729h-240l-358 600l-356 -600h-238l467 729l-434 684h233l328 -551l330 551h233z" />
<glyph unicode="Y" horiz-adv-x="1177" d="M956 1413h224l-492 -821v-592h-199v592l-491 821h223l367 -649z" />
<glyph unicode="Z" horiz-adv-x="1159" d="M1108 170v-170h-1047v152l773 1093h-750v168h1010v-135l-785 -1108h799z" />
<glyph unicode="[" horiz-adv-x="581" d="M494 -172v-115h-388v1846h388v-117h-218v-1614h218z" />
<glyph unicode="\" horiz-adv-x="1056" d="M168 1628l846 -1638l-125 -60l-844 1641z" />
<glyph unicode="]" horiz-adv-x="581" d="M489 1559v-1846h-387v115h217v1614h-217v117h387z" />
<glyph unicode="^" horiz-adv-x="1366" d="M768 1432l373 -818h-166l-291 650l-293 -650h-166l373 818h170z" />
<glyph unicode="_" horiz-adv-x="1024" d="M1024 76v-154h-1024v154h1024z" />
<glyph unicode="`" horiz-adv-x="686" d="M348 1413l182 -297h-149l-225 297h192z" />
<glyph unicode="a" horiz-adv-x="1007" d="M891 565v-565h-191l-2 123q-22 -23 -31 -32t-42.5 -35.5t-62 -40t-76 -26t-97.5 -12.5q-140 0 -238 82.5t-98 219.5q0 138 103 213t278 83l260 11v39q0 107 -66 164t-175 57q-64 0 -131.5 -18t-101.5 -34t-60 -32l-60 131q172 98 365 98q211 0 321 -110q53 -55 79 -126.5 t26 -189.5zM696 258v209l-227 -14q-113 -6 -167 -50.5t-54 -117.5q0 -72 54 -120t147 -48q85 0 147.5 43t99.5 98z" />
<glyph unicode="b" horiz-adv-x="1222" d="M1153 487q0 -221 -130 -365.5t-343 -144.5q-223 0 -342 177h-4v-154h-189v1413h195v-592h4q121 170 340 170q140 0 247.5 -66t164.5 -180.5t57 -257.5zM952 489q0 150 -83 246t-226 96t-227 -96t-84 -246t84 -247t227 -97t226 97t83 247z" />
<glyph unicode="c" horiz-adv-x="972" d="M881 268l69 -143q-46 -46 -80 -68q-123 -80 -309 -80q-132 0 -243 61t-179.5 178.5t-68.5 268.5q0 114 41.5 210.5t110.5 160.5t158.5 99.5t186.5 35.5q73 0 138 -14t104 -31t73 -40.5t44 -34t18 -19.5l-70 -143q-118 118 -290 118q-133 0 -224.5 -92.5t-91.5 -242.5 q0 -154 88.5 -250.5t229.5 -96.5q53 0 103 12.5t83.5 30.5t59 36.5t37.5 31.5z" />
<glyph unicode="d" horiz-adv-x="1222" d="M1077 1413v-1413h-188v156h-4q-59 -88 -147 -133.5t-195 -45.5q-213 0 -343 144.5t-130 365.5q0 143 57 257.5t164.5 180.5t247.5 66q114 0 200 -45.5t140 -124.5h4v592h194zM889 489q0 150 -83 246t-226 96t-226.5 -96t-83.5 -246t83.5 -247t226.5 -97t226 97t83 247z " />
<glyph unicode="e" horiz-adv-x="1083" d="M1024 526l-6 -86h-750q7 -144 92.5 -226.5t221.5 -82.5q43 0 85.5 7.5t73.5 18.5t61.5 25.5t47.5 25.5t34 23t19 13l82 -113l-8 -7q-8 -8 -17.5 -16.5t-26 -21t-36.5 -24t-45.5 -24.5t-57 -23.5t-67 -19t-79.5 -13.5t-91 -5q-218 0 -352.5 139.5t-134.5 370.5 q0 149 67 265.5t179 177.5t247 61q202 0 331.5 -130.5t129.5 -334.5zM270 571h568q-1 44 -18 90t-49 89.5t-88 71.5t-126 28t-126 -26.5t-89 -69.5t-51.5 -90t-20.5 -93z" />
<glyph unicode="f" horiz-adv-x="561" d="M639 1413l-12 -145q-56 18 -111 18q-46 0 -77 -16t-46 -47t-20.5 -64t-5.5 -80v-108h231v-158h-231v-813h-195v813h-139v158h139v98q0 178 66 260q87 107 233 107q50 0 92 -6t59 -12z" />
<glyph unicode="g" horiz-adv-x="1214" d="M1077 973v-768q0 -158 -25.5 -256t-80.5 -164q-152 -186 -434 -186q-225 0 -435 145l93 137q47 -42 148.5 -82.5t199.5 -40.5q99 0 165 31.5t101 75.5q74 89 74 272v49h-4q-117 -174 -340 -174q-127 0 -232.5 57t-171 170.5t-65.5 262.5q0 113 38 206.5t103 154.5 t149.5 94.5t178.5 33.5q119 0 206 -48.5t134 -123.5h6l-2 154h194zM889 502q0 144 -81.5 238t-227.5 94q-145 0 -227.5 -94.5t-82.5 -237.5t82.5 -236.5t227.5 -93.5q146 0 227.5 93t81.5 237z" />
<glyph unicode="h" horiz-adv-x="1122" d="M991 580v-580h-196v551q0 47 -3.5 83t-16 74.5t-33.5 63.5t-58.5 41t-89.5 16q-127 0 -190.5 -96t-63.5 -252v-481h-195v1413h195v-594h4q40 76 119 124t180 48q82 0 144 -21t100.5 -56.5t62 -89.5t32.5 -112t9 -132z" />
<glyph unicode="i" horiz-adv-x="483" d="M369 1292q0 -53 -36 -87t-91 -34q-57 0 -93 34t-36 87t36 87t93 34q55 0 91 -34t36 -87zM340 973v-973h-197v973h197z" />
<glyph unicode="j" horiz-adv-x="483" d="M369 1292q0 -53 -36 -87t-91 -34q-57 0 -93 34t-36 87t36 87t93 34q55 0 91 -34t36 -87zM340 973v-975q0 -194 -61 -279q-90 -120 -246 -120q-36 0 -66.5 4t-43.5 8l-13 4l2 156q41 -15 92 -15q37 0 63 13.5t40.5 34t23 55.5t10.5 66.5t2 78.5v969h197z" />
<glyph unicode="k" horiz-adv-x="997" d="M586 606l430 -606h-230l-333 471l-113 -106v-365h-195v1413h195v-829l397 389h230z" />
<glyph unicode="l" horiz-adv-x="485" d="M340 1413v-1413h-195v1413h195z" />
<glyph unicode="m" horiz-adv-x="1671" d="M1544 590v-590h-194v567q0 262 -179 262q-112 0 -172.5 -92.5t-60.5 -230.5v-506h-197v567q0 58 -8 102t-27 82t-54.5 58t-86.5 20q-112 0 -172.5 -92.5t-60.5 -230.5v-506h-197v973h197l-2 -154h6q36 72 112 122t168 50q221 0 289 -192q103 192 309 192q330 0 330 -401z " />
<glyph unicode="n" horiz-adv-x="1107" d="M981 575v-575h-197v543q0 68 -7.5 115t-28 88.5t-62 62t-104.5 20.5q-66 0 -115.5 -26.5t-78 -74t-42.5 -107.5t-14 -132v-489h-197v973h197l-2 -154h6q40 76 118 124t179 48q100 0 170 -31.5t108 -90.5t54 -130t16 -164z" />
<glyph unicode="o" horiz-adv-x="1169" d="M1100 483q0 -224 -147 -365t-367 -141q-221 0 -368.5 141t-147.5 365q0 223 147.5 365.5t368.5 142.5q144 0 261 -63.5t185 -180.5t68 -264zM901 489q0 146 -86 244t-229 98q-144 0 -231 -98t-87 -244q0 -148 86.5 -246t231.5 -98q143 0 229 98t86 246z" />
<glyph unicode="p" horiz-adv-x="1220" d="M1151 487q0 -221 -130 -365.5t-343 -144.5q-224 0 -336 175l-2 2v-535h-197v1354h189v-154h4q129 172 346 172q212 0 340.5 -142t128.5 -362zM950 489q0 150 -83 246t-226 96t-226 -96t-83 -246t83 -247t226 -97t226 97t83 247z" />
<glyph unicode="q" horiz-adv-x="1212" d="M1077 973v-1354h-194v533h-4q-116 -175 -336 -175q-213 0 -343 144.5t-130 365.5q0 220 129 362t340 142q220 0 346 -172h6l-2 154h188zM889 489q0 150 -83 246t-226 96t-226.5 -96t-83.5 -246t83.5 -247t226.5 -97t226 97t83 247z" />
<glyph unicode="r" horiz-adv-x="686" d="M678 975l-12 -182h-9q-45 20 -106 20q-57 0 -97.5 -26t-62.5 -56q-59 -89 -59 -246v-485h-197v973h197l-2 -150h6q35 82 97.5 125t141.5 43q29 0 55 -4t37 -8z" />
<glyph unicode="s" horiz-adv-x="847" d="M791 285q0 -137 -101 -222q-106 -86 -270 -86q-120 0 -218 46.5t-161 128.5l94 114q53 -65 134 -102t153 -37q78 0 132 33t54 106q0 25 -12.5 47.5t-28.5 36.5t-45 28.5t-46 20.5t-49 16.5t-38 12.5q-18 6 -41 13.5t-34 11.5t-26.5 10.5t-31.5 15.5q-154 78 -154 234 q0 129 96 203.5t232 74.5q215 0 332 -127l-82 -121q-44 46 -111 75.5t-135 29.5q-72 0 -113.5 -31t-41.5 -90q0 -23 11.5 -43t27 -33.5t43.5 -27t50.5 -22t57.5 -19.5q81 -28 131 -47q73 -30 113 -70q78 -74 78 -180z" />
<glyph unicode="t" horiz-adv-x="636" d="M596 168l12 -158q-76 -33 -178 -33q-139 0 -207 101q-30 44 -39.5 106.5t-9.5 184.5v444h-143v158h143v291h197v-291h233v-158h-233v-440q0 -73 4 -111.5t20 -66.5q29 -50 101 -50q25 0 50 5.5t38 11.5z" />
<glyph unicode="u" horiz-adv-x="1097" d="M963 975v-975h-191l-2 139q-41 -73 -121 -117.5t-180 -44.5q-183 0 -270 113q-72 97 -72 301v584h195v-576q0 -56 7.5 -97.5t28 -80.5t62 -59.5t104.5 -20.5q121 0 181.5 89t60.5 223v522h197z" />
<glyph unicode="v" horiz-adv-x="987" d="M782 973h203l-405 -973h-172l-406 973h205l289 -733z" />
<glyph unicode="w" horiz-adv-x="1558" d="M1339 973h199l-321 -973h-181l-256 727l-258 -727h-180l-322 973h199l225 -735l256 737h158l256 -737z" />
<glyph unicode="x" horiz-adv-x="1015" d="M623 512l395 -512h-221l-289 395l-289 -395h-221l395 512l-350 461h217l248 -350l248 350h219z" />
<glyph unicode="y" horiz-adv-x="980" d="M782 975l203 -2l-469 -1143q-50 -122 -110.5 -173.5t-145.5 -51.5q-48 0 -94 8.5t-68 17.5l-22 9l39 159q53 -22 102 -22q19 0 25.5 0.5t23.5 5.5t27 16t24.5 34.5t26.5 57.5l47 129l-389 955l205 -2l289 -756z" />
<glyph unicode="z" horiz-adv-x="933" d="M891 162v-162h-848v121l569 692h-540v158h790v-119l-567 -690h596z" />
<glyph unicode="{" horiz-adv-x="581" d="M504 -172v-115h-90q-149 0 -204.5 71t-55.5 234v373q0 170 -131 170v148q131 0 131 172v370q0 163 55.5 235.5t204.5 72.5h90v-117h-45q-77 0 -107 -29.5t-30 -105.5v-408q0 -89 -18.5 -143t-48 -77.5t-81.5 -39.5v-8q52 -16 81.5 -39t48 -76.5t18.5 -142.5v-410 q0 -76 30 -105.5t107 -29.5h45z" />
<glyph unicode="|" horiz-adv-x="581" d="M362 1638v-1882h-143v1882h143z" />
<glyph unicode="}" horiz-adv-x="581" d="M557 709v-148q-129 0 -129 -170v-373q0 -163 -55.5 -234t-204.5 -71h-92v115h47q77 0 106 29t29 106v410q0 89 18.5 142.5t48.5 76.5t83 39v8q-53 16 -83 39.5t-48.5 77.5t-18.5 143v408q0 77 -29 106t-106 29h-47v117h92q149 0 204.5 -72.5t55.5 -235.5v-370 q0 -172 129 -172z" />
<glyph unicode="~" horiz-adv-x="1366" d="M1104 756l104 -101q-125 -206 -305 -206q-46 0 -96.5 14t-73.5 24.5t-74 36.5q-6 3 -26.5 13.5t-29.5 14.5t-27.5 12.5t-30 12t-27.5 8.5t-30.5 7t-28.5 2q-109 0 -197 -143l-104 100q129 207 305 207q46 0 96 -14t76.5 -26.5t71.5 -35.5q43 -22 67.5 -34t63 -24 t69.5 -12q110 0 197 144z" />
<glyph unicode="&#xa1;" horiz-adv-x="616" d="M444 866q0 -58 -38 -93.5t-97 -35.5q-61 0 -99 35.5t-38 93.5t38 93.5t99 35.5q59 0 97 -35.5t38 -93.5zM393 598l19 -1038h-205l16 1038h170z" />
<glyph unicode="&#xa2;" d="M987 387l57 -139q-34 -39 -129 -81.5t-186 -45.5v-182h-121v184q-198 21 -325 158.5t-127 343.5t127 343.5t325 159.5v183h121v-181q96 -6 184 -44t125 -78l-61 -144q-35 37 -101 69.5t-147 39.5v-690q71 1 147 34t111 70zM608 291v676q-118 -21 -190 -116.5t-72 -223.5 q0 -127 70 -220t192 -116z" />
<glyph unicode="&#xa3;" d="M1100 158v-158h-973v158h240q28 46 49.5 125.5t21.5 138.5q0 35 -3.5 75.5t-6.5 63.5l-4 23h-236v131h213l-45 127q-47 129 -47 233q0 155 109 256q106 103 282 103q241 0 355 -170l-94 -113q-1 1 -7.5 9.5t-12 15.5t-16 18.5t-21.5 20.5t-26 20t-32 19t-37 15.5t-44 11 t-50 3.5q-112 0 -166.5 -64.5t-54.5 -150.5q0 -103 51 -238l41 -116h307v-131h-285q15 -84 15 -162q0 -59 -22 -138t-50 -126h549z" />
<glyph unicode="&#xa4;" d="M1044 295l82 -131l-8 -10q-7 -10 -13 -17.5t-19.5 -22t-26.5 -26t-33.5 -26.5t-41.5 -26.5t-49.5 -23.5t-58.5 -19.5t-67.5 -12.5t-77.5 -5q-205 0 -343 141t-179 394h-137v133l123 2q-2 39 -2 72v69h-121v134h139q17 107 64 204t112 164q140 146 348 146q72 0 134 -14.5 t109.5 -42t67.5 -42.5t50 -41l-68 -153q-105 133 -289 133q-123 0 -209.5 -88t-113.5 -266h510v-134h-529v-69l2 -74h527v-133h-510q22 -171 108 -267t217 -96q58 0 109 15t87.5 40t58.5 44.5t42 41.5q4 5 6 7z" />
<glyph unicode="&#xa5;" d="M944 1413h221l-352 -600h250v-133h-324l-41 -82v-70h365v-133h-365v-395h-196v395h-365v133h365v68l-39 84h-326v133h250l-352 600h223l342 -641z" />
<glyph unicode="&#xa6;" horiz-adv-x="581" d="M362 1638v-641h-143v641h143zM362 639v-639h-143v639h143z" />
<glyph unicode="&#xa7;" horiz-adv-x="1251" d="M1055 514q0 -57 -21 -108t-50.5 -82t-59.5 -54.5t-51 -33.5l-21 -9q69 -36 121.5 -111.5t52.5 -178.5q0 -153 -118 -245.5t-290 -92.5q-310 0 -421 247l129 91q37 -93 118.5 -144t180.5 -51q98 0 157.5 48t59.5 138q0 44 -17.5 80t-55 65t-73.5 49t-94 46l-176 82 q-91 43 -147 119.5t-56 179.5q0 68 25.5 125.5t63.5 92.5t67.5 54t52.5 27q-6 4 -16 10.5t-35 31t-44.5 52.5t-35.5 73.5t-16 94.5q0 149 105.5 236.5t266.5 87.5q281 0 396 -217l-111 -97q-45 87 -117 131.5t-161 44.5q-91 0 -145 -45.5t-54 -128.5q0 -41 16.5 -74 t52 -60.5t70.5 -47t92 -45.5l142 -64q97 -46 157 -124.5t60 -192.5zM885 500q0 122 -137 188l-211 92q-69 -23 -107.5 -78t-38.5 -131q0 -69 36.5 -111t98.5 -75l211 -92q148 52 148 207z" />
<glyph unicode="&#xa8;" horiz-adv-x="686" d="M608 1264q0 -48 -31.5 -78.5t-76.5 -30.5q-44 0 -75.5 30.5t-31.5 78.5q0 49 31.5 79.5t75.5 30.5q46 0 77 -30t31 -80zM293 1264q0 -48 -31.5 -78.5t-75.5 -30.5q-45 0 -76.5 30.5t-31.5 78.5q0 50 31 80t77 30q44 0 75.5 -30.5t31.5 -79.5z" />
<glyph unicode="&#xa9;" horiz-adv-x="1611" d="M1536 707q0 -202 -96.5 -369.5t-264 -264t-368.5 -96.5q-202 0 -369.5 96.5t-263.5 264t-96 369.5q0 151 56.5 286.5t153.5 232.5t232.5 153.5t286.5 56.5t286 -56.5t232 -153.5t154 -232.5t57 -286.5zM1440 707q0 172 -85 317.5t-231 230t-317 84.5q-172 0 -318 -84.5 t-230.5 -230t-84.5 -317.5q0 -129 50 -246t135 -202t202 -135t246 -50t246 50t202 135t135 202t50 246zM1092 492l63 -91q-42 -49 -123 -89t-194 -40q-183 0 -305.5 122.5t-122.5 312.5t122.5 312t305.5 122q110 0 188.5 -36t120.5 -83l-66 -98q-31 39 -93.5 70.5 t-145.5 31.5q-125 0 -210 -83t-85 -232t83 -233.5t212 -84.5q148 0 250 99z" />
<glyph unicode="&#xaa;" horiz-adv-x="718" d="M612 719v-334h-141l-2 74q-26 -30 -78.5 -57t-114.5 -27q-52 0 -99 18.5t-80.5 62t-33.5 105.5t35.5 103t86 57t116.5 18l166 6v13q0 64 -41 96.5t-107 32.5q-56 0 -109 -18.5t-71 -34.5l-47 92q39 25 104.5 45t135.5 20q144 0 213 -69q67 -64 67 -203zM467 541v121 l-135 -5q-53 -3 -85 -25.5t-32 -64.5q0 -45 30.5 -69.5t84.5 -24.5q48 0 85.5 24t51.5 44z" />
<glyph unicode="&#xab;" horiz-adv-x="1001" d="M621 487l243 -329l-108 -76l-303 405l303 406l108 -80zM281 487l243 -329l-108 -76l-305 405l305 406l106 -80z" />
<glyph unicode="&#xac;" horiz-adv-x="1370" d="M1219 954v-612h-152v461h-920v151h1072z" />
<glyph unicode="&#xad;" horiz-adv-x="598" d="M547 643v-164h-496v164h496z" />
<glyph unicode="&#xae;" horiz-adv-x="1611" d="M1536 707q0 -202 -96.5 -369.5t-264 -264t-368.5 -96.5q-202 0 -369.5 96.5t-263.5 264t-96 369.5q0 151 56.5 286.5t153.5 232.5t232.5 153.5t286.5 56.5t286 -56.5t232 -153.5t154 -232.5t57 -286.5zM1440 707q0 172 -85 317.5t-231 230t-317 84.5q-172 0 -318 -84.5 t-230.5 -230t-84.5 -317.5q0 -129 50 -246t135 -202t202 -135t246 -50q128 0 245 50t202 135t135.5 202t50.5 246zM909 649l228 -364h-158l-203 350h-104v-350h-131v843l290 -2q110 0 187.5 -65t77.5 -178q0 -56 -17.5 -100.5t-47 -70.5t-59.5 -41t-63 -22zM961 881 q0 137 -177 137h-112v-275h112q177 0 177 138z" />
<glyph unicode="&#xaf;" horiz-adv-x="686" d="M608 1325v-113h-530v113h530z" />
<glyph unicode="&#xb0;" horiz-adv-x="843" d="M737 1196q0 -133 -92 -222t-223 -89t-223.5 89t-92.5 222q0 132 92.5 220.5t223.5 88.5t223 -88.5t92 -220.5zM623 1196q0 81 -58 140t-143 59t-142 -59t-57 -140q0 -83 57 -142t142 -59t143 59t58 142z" />
<glyph unicode="&#xb1;" horiz-adv-x="1366" d="M1219 961v-150h-459v-399h-154v399h-459v150h459v399h154v-399h459zM1219 326v-150h-1072v150h1072z" />
<glyph unicode="&#xb2;" horiz-adv-x="776" d="M700 715v-123h-606l-10 106l324 316q71 71 101 117t30 100q0 61 -45.5 99t-122.5 38q-146 0 -203 -156l-94 60q13 90 96 154.5t211 64.5q132 0 217.5 -69.5t85.5 -178.5q0 -26 -6 -52.5t-12.5 -46.5t-23 -46t-25 -39t-32.5 -38.5t-31 -33t-34.5 -34t-30.5 -29.5 l-210 -209h421z" />
<glyph unicode="&#xb3;" horiz-adv-x="776" d="M709 846q0 -118 -92 -191t-224 -73q-114 0 -195 49t-114 143l98 64q23 -64 77.5 -100t125.5 -36q73 0 125.5 40.5t52.5 105.5q0 69 -50.5 109t-127.5 42h-51v115h59q64 2 107 38.5t43 98.5q0 54 -41.5 88.5t-108.5 34.5q-63 0 -112.5 -31.5t-77.5 -89.5l-82 70 q34 77 105.5 122.5t172.5 45.5q120 0 203.5 -64.5t83.5 -166.5q0 -70 -38.5 -120.5t-104.5 -76.5v-4q74 -20 120 -78.5t46 -134.5z" />
<glyph unicode="&#xb4;" horiz-adv-x="686" d="M338 1413h192l-225 -297h-149z" />
<glyph unicode="&#xb5;" horiz-adv-x="1107" d="M973 971v-971h-191l-2 131q-35 -54 -111.5 -99.5t-160.5 -45.5q-70 0 -119.5 23t-64.5 54l4 -444h-193v1352h195v-549q0 -63 9 -110t31 -86.5t64 -60t103 -20.5q122 0 180.5 77t58.5 208v541h197z" />
<glyph unicode="&#xb6;" horiz-adv-x="1230" d="M1114 1413v-141h-106v-1653h-148v1653h-186v-1653h-150v948q-189 3 -304.5 113.5t-115.5 310.5q0 204 119.5 313t341.5 109h549z" />
<glyph unicode="&#xb7;" horiz-adv-x="694" d="M481 592q0 -57 -37.5 -93t-97.5 -36q-59 0 -96 36t-37 93t37 92t96 35q60 0 97.5 -35t37.5 -92z" />
<glyph unicode="&#xb8;" horiz-adv-x="716" d="M393 0h137l-165 -299h-179z" />
<glyph unicode="&#xb9;" horiz-adv-x="776" d="M535 1470v-880h-148v770h-170v110h318z" />
<glyph unicode="&#xba;" horiz-adv-x="806" d="M723 682q0 -134 -92 -220.5t-228 -86.5t-227.5 86.5t-91.5 220.5q0 135 91.5 222t227.5 87q137 0 228.5 -87t91.5 -222zM575 688q0 87 -49.5 136.5t-122.5 49.5q-74 0 -124 -49.5t-50 -136.5q0 -89 50 -140.5t124 -51.5q72 0 122 51.5t50 140.5z" />
<glyph unicode="&#xbb;" horiz-adv-x="1001" d="M586 893l303 -406l-303 -405l-107 78l242 327l-244 328zM244 893l305 -406l-305 -405l-107 78l242 327l-244 328z" />
<glyph unicode="&#xbc;" horiz-adv-x="1822" d="M1673 299v-119h-129v-180h-145v180h-463v90l471 625h137v-596h129zM1186 1446l102 -62l-874 -1431l-103 61zM457 1413v-819h-148v709h-172v110h320zM1098 299h301v412z" />
<glyph unicode="&#xbd;" horiz-adv-x="1824" d="M1700 125v-125h-600l-21 94l295 277q45 43 72 72.5t51.5 74.5t24.5 86q0 67 -45.5 107.5t-116.5 40.5q-120 0 -205 -140l-82 86q38 77 115 128t190 51q124 0 206.5 -71t82.5 -179q0 -42 -12 -82t-27 -68t-43.5 -62t-46.5 -51.5t-51 -48.5l-203 -190h416zM1178 1446 l102 -62l-874 -1431l-103 61zM453 1413v-850h-148v740h-172v110h320z" />
<glyph unicode="&#xbe;" horiz-adv-x="1822" d="M1673 299v-119h-129v-180h-145v180h-463v90l471 625h137v-596h129zM709 846q0 -118 -92 -191t-224 -73q-114 0 -195 49t-114 143l98 64q23 -64 77.5 -100t125.5 -36q73 0 125.5 40.5t52.5 105.5q0 69 -50.5 109t-127.5 42h-51v115h59q64 2 107 38.5t43 98.5 q0 54 -41.5 88.5t-108.5 34.5q-63 0 -112.5 -31.5t-77.5 -89.5l-82 70q34 77 105.5 122.5t172.5 45.5q120 0 203.5 -64.5t83.5 -166.5q0 -70 -38.5 -120.5t-104.5 -76.5v-4q74 -20 120 -78.5t46 -134.5zM1276 1446l102 -62l-874 -1431l-103 61zM1098 299h301v412z" />
<glyph unicode="&#xbf;" horiz-adv-x="1007" d="M680 864q0 -58 -38 -93.5t-97 -35.5q-61 0 -99 35.5t-38 93.5t38 93.5t99 35.5q59 0 97 -35.5t38 -93.5zM801 -147l88 -123q-14 -22 -31 -43.5t-51 -49.5t-73.5 -48.5t-100 -35t-129.5 -14.5q-174 0 -280.5 98t-106.5 236q0 60 12.5 109t40 90.5t50.5 67t65 65.5 q18 17 49 45.5t47 44t33.5 37.5t27.5 43q15 43 15 78l4 143h166l4 -145q1 -58 -9.5 -103.5t-36 -83t-43.5 -57.5t-55 -53l-118 -111q-66 -59 -66 -149q0 -88 63 -139.5t166 -51.5q94 0 163 43.5t106 106.5z" />
<glyph unicode="&#xc0;" horiz-adv-x="1331" d="M563 1817l182 -297h-149l-225 297h192zM752 1417l577 -1417h-221l-145 369h-607l-145 -369h-209l576 1417h174zM412 535h495l-248 634z" />
<glyph unicode="&#xc1;" horiz-adv-x="1331" d="M768 1817h193l-226 -297h-149zM752 1417l577 -1417h-221l-145 369h-607l-145 -369h-209l576 1417h174zM412 535h495l-248 634z" />
<glyph unicode="&#xc2;" horiz-adv-x="1331" d="M745 1817l189 -297h-143l-125 202l-125 -202h-144l189 297h159zM752 1417l577 -1417h-221l-145 369h-607l-145 -369h-209l576 1417h174zM412 535h495l-248 634z" />
<glyph unicode="&#xc3;" horiz-adv-x="1331" d="M889 1767l96 -20q-6 -82 -61.5 -135t-126.5 -53q-26 0 -52 6t-39 11.5t-33.5 16.5t-21.5 11q-3 2 -28.5 17t-48 23.5t-44.5 8.5q-34 0 -58 -25t-30 -61l-96 20q4 82 60.5 135.5t128.5 53.5q26 0 52 -6t38.5 -11.5t32.5 -16t22 -11.5q4 -2 28.5 -17t47.5 -24t45 -9 q34 0 58 25t30 61zM752 1417l577 -1417h-221l-145 369h-607l-145 -369h-209l576 1417h174zM412 535h495l-248 634z" />
<glyph unicode="&#xc4;" horiz-adv-x="1331" d="M930 1661q0 -50 -31.5 -80.5t-77.5 -30.5q-45 0 -75.5 30.5t-30.5 80.5q0 48 30.5 78t75.5 30q46 0 77.5 -30t31.5 -78zM616 1661q0 -50 -31 -80.5t-75 -30.5q-46 0 -77.5 30.5t-31.5 80.5q0 48 31.5 78t77.5 30q44 0 75 -30t31 -78zM752 1417l577 -1417h-221l-145 369 h-607l-145 -369h-209l576 1417h174zM412 535h495l-248 634z" />
<glyph unicode="&#xc5;" horiz-adv-x="1331" d="M870 1683q0 -85 -59 -139.5t-145 -54.5t-145.5 54.5t-59.5 139.5t59.5 140t145.5 55t145 -55t59 -140zM752 1417l577 -1417h-221l-145 369h-607l-145 -369h-209l576 1417h174zM772 1683q0 46 -30 76.5t-76 30.5t-76.5 -30.5t-30.5 -76.5t30.5 -77t76.5 -31t76 31t30 77z M412 535h495l-248 634z" />
<glyph unicode="&#xc6;" horiz-adv-x="1800" d="M1712 168v-168h-786v373h-539l-225 -373h-223l888 1413h869v-166h-572v-413h537v-166h-537v-500h588zM487 537h439v714h-4z" />
<glyph unicode="&#xc7;" horiz-adv-x="1361" d="M1229 330l86 -146q-77 -85 -196.5 -144t-278.5 -63l-131 -284h-201l170 293q-92 11 -178.5 46t-163.5 96.5t-134.5 143.5t-91.5 193.5t-34 239.5q0 215 96 382.5t260 257t367 89.5q94 0 177 -18t144.5 -48t103.5 -59t76 -62l-83 -160q-50 63 -163 118t-247 55 q-231 0 -378.5 -152t-147.5 -399q0 -246 148 -398.5t378 -152.5q134 0 241.5 46.5t180.5 125.5z" />
<glyph unicode="&#xc8;" horiz-adv-x="1087" d="M502 1817l180 -297h-147l-226 297h193zM999 168v-168h-843v1413h827v-166h-629v-422h594v-166h-594v-491h645z" />
<glyph unicode="&#xc9;" horiz-adv-x="1087" d="M614 1817h191l-225 -297h-148zM999 168v-168h-843v1413h827v-166h-629v-422h594v-166h-594v-491h645z" />
<glyph unicode="&#xca;" horiz-adv-x="1087" d="M649 1817l189 -297h-144l-125 202l-125 -202h-143l188 297h160zM999 168v-168h-843v1413h827v-166h-629v-422h594v-166h-594v-491h645z" />
<glyph unicode="&#xcb;" horiz-adv-x="1087" d="M834 1661q0 -50 -31 -80.5t-76 -30.5q-46 0 -77.5 30.5t-31.5 80.5q0 48 31.5 78t77.5 30q45 0 76 -30t31 -78zM520 1661q0 -50 -30.5 -80.5t-75.5 -30.5q-46 0 -77.5 30.5t-31.5 80.5q0 48 31.5 78t77.5 30q45 0 75.5 -30t30.5 -78zM999 168v-168h-843v1413h827v-166 h-629v-422h594v-166h-594v-491h645z" />
<glyph unicode="&#xcc;" horiz-adv-x="509" d="M172 1817l182 -297h-149l-225 297h192zM354 1413v-1413h-198v1413h198z" />
<glyph unicode="&#xcd;" horiz-adv-x="509" d="M340 1817h190l-225 -297h-147zM354 1413v-1413h-198v1413h198z" />
<glyph unicode="&#xce;" horiz-adv-x="509" d="M336 1817l186 -297h-143l-123 202l-125 -202h-143l186 297h162zM354 1413v-1413h-198v1413h198z" />
<glyph unicode="&#xcf;" horiz-adv-x="509" d="M520 1667q0 -48 -31 -78t-77 -30q-44 0 -75.5 30t-31.5 78q0 49 31.5 80t75.5 31q46 0 77 -30.5t31 -80.5zM207 1667q0 -48 -31.5 -78t-77.5 -30q-45 0 -75.5 30t-30.5 78q0 50 30.5 80.5t75.5 30.5q46 0 77.5 -30.5t31.5 -80.5zM354 1413v-1413h-198v1413h198z" />
<glyph unicode="&#xd0;" horiz-adv-x="1404" d="M1329 707q0 -321 -219 -523q-86 -79 -221.5 -131.5t-306.5 -52.5h-426v666h-133v147h133v600h426q171 0 306.5 -52.5t221.5 -131.5q219 -202 219 -522zM1126 707q0 246 -168 405q-138 131 -376 131h-228v-430h359v-145h-359v-496h228q238 0 376 131q168 159 168 404z" />
<glyph unicode="&#xd1;" horiz-adv-x="1515" d="M981 1767l96 -20q-6 -82 -61.5 -135t-126.5 -53q-26 0 -52 6t-39 11.5t-33.5 16.5t-21.5 11q-4 2 -28.5 17t-47 23.5t-44.5 8.5q-35 0 -59 -25t-32 -61l-94 20q4 82 60 135.5t127 53.5q27 0 53.5 -6t39 -11.5t33 -16t21.5 -11.5q4 -2 28.5 -17t47 -24t43.5 -9 q35 0 59.5 25t30.5 61zM1358 1413v-1413h-195l-815 1126q4 -190 4 -374v-752h-196v1413h209l800 -1110q-2 175 -2 361v749h195z" />
<glyph unicode="&#xd2;" horiz-adv-x="1609" d="M698 1817l181 -297h-148l-225 297h192zM1534 705q0 -166 -58 -304.5t-157.5 -231t-232 -143.5t-281.5 -51t-281.5 51t-232 143.5t-157.5 231t-58 304.5t58 304.5t157.5 230.5t232 143t281.5 51t281.5 -51t232 -143t157.5 -230.5t58 -304.5zM1331 709q0 127 -41.5 232 t-113 174.5t-167.5 108t-204 38.5t-204 -38.5t-167.5 -108t-113 -174.5t-41.5 -232q0 -126 42 -231t113.5 -175t167 -108.5t203.5 -38.5t204 38.5t167.5 108.5t113 175t41.5 231z" />
<glyph unicode="&#xd3;" horiz-adv-x="1609" d="M913 1817h191l-225 -297h-148zM1534 705q0 -166 -58 -304.5t-157.5 -231t-232 -143.5t-281.5 -51t-281.5 51t-232 143.5t-157.5 231t-58 304.5t58 304.5t157.5 230.5t232 143t281.5 51t281.5 -51t232 -143t157.5 -230.5t58 -304.5zM1331 709q0 127 -41.5 232t-113 174.5 t-167.5 108t-204 38.5t-204 -38.5t-167.5 -108t-113 -174.5t-41.5 -232q0 -126 42 -231t113.5 -175t167 -108.5t203.5 -38.5t204 38.5t167.5 108.5t113 175t41.5 231z" />
<glyph unicode="&#xd4;" horiz-adv-x="1609" d="M885 1817l188 -297h-143l-125 202l-125 -202h-143l188 297h160zM1534 705q0 -166 -58 -304.5t-157.5 -231t-232 -143.5t-281.5 -51t-281.5 51t-232 143.5t-157.5 231t-58 304.5t58 304.5t157.5 230.5t232 143t281.5 51t281.5 -51t232 -143t157.5 -230.5t58 -304.5z M1331 709q0 127 -41.5 232t-113 174.5t-167.5 108t-204 38.5t-204 -38.5t-167.5 -108t-113 -174.5t-41.5 -232q0 -126 42 -231t113.5 -175t167 -108.5t203.5 -38.5t204 38.5t167.5 108.5t113 175t41.5 231z" />
<glyph unicode="&#xd5;" horiz-adv-x="1609" d="M1028 1767l96 -20q-4 -82 -60 -135t-128 -53q-26 0 -52 6t-38.5 11.5t-32.5 16t-22 11.5q-3 2 -28.5 17t-48 23.5t-44.5 8.5q-34 0 -58 -25t-30 -61l-97 20q6 82 62 135.5t127 53.5q26 0 52 -6t38.5 -11.5t32.5 -16t22 -11.5q4 -2 28.5 -17t47.5 -24t45 -9q34 0 58 25 t30 61zM1534 705q0 -166 -58 -304.5t-157.5 -231t-232 -143.5t-281.5 -51t-281.5 51t-232 143.5t-157.5 231t-58 304.5t58 304.5t157.5 230.5t232 143t281.5 51t281.5 -51t232 -143t157.5 -230.5t58 -304.5zM1331 709q0 126 -41.5 231t-113 175t-167.5 108.5t-204 38.5 t-204 -38.5t-167.5 -108t-113 -174.5t-41.5 -232q0 -126 42 -231t113.5 -175t167 -108.5t203.5 -38.5t204 38.5t167.5 108.5t113 175t41.5 231z" />
<glyph unicode="&#xd6;" horiz-adv-x="1609" d="M1069 1661q0 -50 -31 -80.5t-75 -30.5q-46 0 -77.5 30.5t-31.5 80.5q0 48 31.5 78t77.5 30q44 0 75 -30t31 -78zM756 1661q0 -49 -31.5 -80t-75.5 -31q-46 0 -77 30.5t-31 80.5q0 48 31 78t77 30q44 0 75.5 -30t31.5 -78zM1534 705q0 -166 -58 -304.5t-157.5 -231 t-232 -143.5t-281.5 -51t-281.5 51t-232 143.5t-157.5 231t-58 304.5t58 304.5t157.5 230.5t232 143t281.5 51t281.5 -51t232 -143t157.5 -230.5t58 -304.5zM1331 709q0 126 -41.5 231t-113 175t-167.5 108.5t-204 38.5t-204 -38.5t-167.5 -108t-113 -174.5t-41.5 -232 q0 -126 42 -231t113.5 -175t167 -108.5t203.5 -38.5t204 38.5t167.5 108.5t113 175t41.5 231z" />
<glyph unicode="&#xd7;" horiz-adv-x="1366" d="M793 705l409 -410l-106 -111l-412 412l-414 -412l-104 111l409 410l-409 409l104 111l414 -412l412 412l106 -111z" />
<glyph unicode="&#xd8;" horiz-adv-x="1609" d="M1534 705q0 -166 -58 -304.5t-157 -231t-231.5 -143.5t-282.5 -51q-269 0 -467 156l-160 -164l-98 99l158 161q-162 196 -162 478q0 166 58 304.5t157.5 230.5t232 143t281.5 51q270 0 469 -154l162 166l98 -98l-162 -166q162 -192 162 -477zM379 371l764 776 q-143 115 -338 115q-108 0 -204 -38.5t-167.5 -108t-113 -174.5t-41.5 -232q0 -198 100 -338zM1331 709q0 193 -96 335l-762 -776q143 -112 332 -112q108 0 204 38.5t167.5 108.5t113 175t41.5 231z" />
<glyph unicode="&#xd9;" horiz-adv-x="1366" d="M614 1817l183 -297h-150l-225 297h192zM1221 1413v-835q0 -148 -23 -249.5t-90 -181.5q-149 -172 -424 -172q-278 0 -424 172q-68 80 -91.5 181t-23.5 250v835h201v-817q0 -74 3 -119t18 -102t45 -96q91 -125 272 -125q177 0 272 125q30 39 45 96.5t18 102.5t3 118v817 h199z" />
<glyph unicode="&#xda;" horiz-adv-x="1366" d="M752 1817h192l-225 -297h-148zM1221 1413v-835q0 -148 -23 -249.5t-90 -181.5q-149 -172 -424 -172q-278 0 -424 172q-68 80 -91.5 181t-23.5 250v835h201v-817q0 -74 3 -119t18 -102t45 -96q91 -125 272 -125q177 0 272 125q30 39 45 96.5t18 102.5t3 118v817h199z" />
<glyph unicode="&#xdb;" horiz-adv-x="1366" d="M764 1817l186 -297h-143l-123 202l-125 -202h-143l186 297h162zM1221 1413v-835q0 -148 -23 -249.5t-90 -181.5q-149 -172 -424 -172q-278 0 -424 172q-68 80 -91.5 181t-23.5 250v835h201v-817q0 -74 3 -119t18 -102t45 -96q91 -125 272 -125q177 0 272 125 q30 39 45 96.5t18 102.5t3 118v817h199z" />
<glyph unicode="&#xdc;" horiz-adv-x="1366" d="M948 1661q0 -50 -31 -80.5t-77 -30.5q-44 0 -75.5 31t-31.5 80q0 48 31.5 78t75.5 30q46 0 77 -30t31 -78zM635 1661q0 -50 -31.5 -80.5t-77.5 -30.5q-45 0 -75.5 30.5t-30.5 80.5q0 48 30.5 78t75.5 30q46 0 77.5 -30t31.5 -78zM1221 1413v-835q0 -148 -23 -249.5 t-90 -181.5q-149 -172 -424 -172q-278 0 -424 172q-68 80 -91.5 181t-23.5 250v835h201v-817q0 -74 3 -119t18 -102t45 -96q91 -125 272 -125q177 0 272 125q30 39 45 96.5t18 102.5t3 118v817h199z" />
<glyph unicode="&#xdd;" horiz-adv-x="1177" d="M657 1817h191l-225 -297h-148zM956 1413h224l-492 -821v-592h-199v592l-491 821h223l367 -649z" />
<glyph unicode="&#xde;" horiz-adv-x="1079" d="M1014 743q0 -187 -135 -303q-119 -100 -344 -100h-181v-340h-198v1413h198v-266h181q225 0 344 -100q135 -119 135 -304zM809 743q0 62 -24 111t-64 76q-73 55 -205 55h-162v-485h162q128 0 205 55q88 64 88 188z" />
<glyph unicode="&#xdf;" horiz-adv-x="1144" d="M1075 424q0 -201 -136 -319.5t-364 -118.5q-26 0 -55 3t-45 6l-16 3l12 154q39 -11 96 -11q59 0 112.5 17t99 50.5t73 91.5t27.5 132q0 148 -91.5 225.5t-242.5 77.5h-62v150h58q106 0 162.5 56.5t56.5 156.5q0 92 -64 142t-149 50q-111 0 -166 -78q-22 -34 -31.5 -79 t-9.5 -127v-1006h-195v915q0 207 31 287q38 102 123 160q102 72 264 72q170 0 273.5 -91.5t103.5 -224.5q0 -117 -62 -194t-128 -88v-5q131 -20 228 -130t97 -277z" />
<glyph unicode="&#xe0;" horiz-adv-x="1007" d="M412 1413l180 -297h-148l-225 297h193zM891 565v-565h-191l-2 123q-22 -23 -31 -32t-42.5 -35.5t-62 -40t-76 -26t-97.5 -12.5q-140 0 -238 82.5t-98 219.5q0 138 103 213t278 83l260 11v39q0 107 -66 164t-175 57q-64 0 -131.5 -18t-101.5 -34t-60 -32l-60 131 q172 98 365 98q211 0 321 -110q53 -55 79 -126.5t26 -189.5zM696 258v209l-227 -14q-113 -6 -167 -50.5t-54 -117.5q0 -72 54 -120t147 -48q85 0 147.5 43t99.5 98z" />
<glyph unicode="&#xe1;" horiz-adv-x="1007" d="M541 1413h190l-225 -297h-148zM891 565v-565h-191l-2 123q-22 -23 -31 -32t-42.5 -35.5t-62 -40t-76 -26t-97.5 -12.5q-140 0 -238 82.5t-98 219.5q0 138 103 213t278 83l260 11v39q0 107 -66 164t-175 57q-64 0 -131.5 -18t-101.5 -34t-60 -32l-60 131q172 98 365 98 q211 0 321 -110q53 -55 79 -126.5t26 -189.5zM696 258v209l-227 -14q-113 -6 -167 -50.5t-54 -117.5q0 -72 54 -120t147 -48q85 0 147.5 43t99.5 98z" />
<glyph unicode="&#xe2;" horiz-adv-x="1007" d="M561 1413l187 -297h-144l-125 205l-123 -205h-143l186 297h162zM891 565v-565h-191l-2 123q-22 -23 -31 -32t-42.5 -35.5t-62 -40t-76 -26t-97.5 -12.5q-140 0 -238 82.5t-98 219.5q0 138 103 213t278 83l260 11v39q0 107 -66 164t-175 57q-64 0 -131.5 -18t-101.5 -34 t-60 -32l-60 131q172 98 365 98q211 0 321 -110q53 -55 79 -126.5t26 -189.5zM696 258v209l-227 -14q-113 -6 -167 -50.5t-54 -117.5q0 -72 54 -120t147 -48q85 0 147.5 43t99.5 98z" />
<glyph unicode="&#xe3;" horiz-adv-x="1007" d="M733 1370l96 -20q-6 -82 -61.5 -135.5t-126.5 -53.5q-26 0 -52 6t-38.5 11.5t-32.5 16t-22 11.5q-4 2 -22 13.5t-30 18t-32 13t-37 6.5q-35 0 -58.5 -25t-31.5 -63l-97 21q6 82 62 136t127 54q27 0 53 -6t39.5 -12.5t32.5 -17t22 -11.5q4 -2 21 -12t30 -17t32.5 -13.5 t35.5 -6.5q35 0 59.5 25t30.5 61zM891 565v-565h-191l-2 123q-22 -23 -31 -32t-42.5 -35.5t-62 -40t-76 -26t-97.5 -12.5q-140 0 -238 82.5t-98 219.5q0 138 103 213t278 83l260 11v39q0 107 -66 164t-175 57q-64 0 -131.5 -18t-101.5 -34t-60 -32l-60 131q172 98 365 98 q211 0 321 -110q53 -55 79 -126.5t26 -189.5zM696 258v209l-227 -14q-113 -6 -167 -50.5t-54 -117.5q0 -72 54 -120t147 -48q85 0 147.5 43t99.5 98z" />
<glyph unicode="&#xe4;" horiz-adv-x="1007" d="M741 1264q0 -48 -31.5 -78.5t-76.5 -30.5q-44 0 -75.5 30.5t-31.5 78.5q0 49 31.5 79.5t75.5 30.5q46 0 77 -30t31 -80zM428 1264q0 -49 -30.5 -79t-75.5 -30q-46 0 -77.5 30.5t-31.5 78.5q0 50 31.5 80t77.5 30q45 0 75.5 -30t30.5 -80zM891 565v-565h-191l-2 123 q-22 -23 -31 -32t-42.5 -35.5t-62 -40t-76 -26t-97.5 -12.5q-140 0 -238 82.5t-98 219.5q0 138 103 213t278 83l260 11v39q0 107 -66 164t-175 57q-64 0 -131.5 -18t-101.5 -34t-60 -32l-60 131q172 98 365 98q211 0 321 -110q53 -55 79 -126.5t26 -189.5zM696 258v209 l-227 -14q-113 -6 -167 -50.5t-54 -117.5q0 -72 54 -120t147 -48q85 0 147.5 43t99.5 98z" />
<glyph unicode="&#xe5;" horiz-adv-x="1007" d="M682 1305q0 -84 -58.5 -139.5t-144.5 -55.5q-87 0 -146 55.5t-59 139.5t59 139t146 55q86 0 144.5 -55t58.5 -139zM891 565v-565h-191l-2 123q-22 -23 -31 -32t-42.5 -35.5t-62 -40t-76 -26t-97.5 -12.5q-140 0 -238 82.5t-98 219.5q0 138 103 213t278 83l260 11v39 q0 107 -66 164t-175 57q-64 0 -131.5 -18t-101.5 -34t-60 -32l-60 131q172 98 365 98q211 0 321 -110q53 -55 79 -126.5t26 -189.5zM584 1305q0 45 -30 75.5t-75 30.5q-47 0 -76.5 -30.5t-29.5 -75.5t30 -77t76 -32q45 0 75 32t30 77zM696 258v209l-227 -14 q-113 -6 -167 -50.5t-54 -117.5q0 -72 54 -120t147 -48q85 0 147.5 43t99.5 98z" />
<glyph unicode="&#xe6;" horiz-adv-x="1703" d="M1642 526l-4 -86h-751q7 -142 92.5 -225.5t222.5 -83.5q51 0 99 10t86 26.5t63.5 30.5t48.5 29.5t25 16.5l82 -113q-1 0 -12.5 -11.5t-28 -24t-42 -29.5t-60 -32t-75.5 -28t-96 -21t-114 -8q-69 0 -130.5 15.5t-100 35t-75 50t-51 47t-32.5 40.5q-5 6 -7 9 q-81 -98 -170.5 -147.5t-220.5 -49.5q-145 0 -241.5 83t-96.5 219q0 140 103.5 215t281.5 81l256 11v41q0 106 -65.5 162.5t-175.5 56.5q-64 0 -131.5 -18t-101.5 -34t-60 -32l-60 131q172 98 365 98q188 0 283 -88q24 -22 41 -44.5t23 -34.5l5 -11q59 85 154.5 131.5 t212.5 46.5q202 0 330 -131t128 -334zM891 571h565q0 43 -16.5 90t-48 90t-87.5 71t-126 28t-126.5 -26.5t-90 -69.5t-51 -90t-19.5 -93zM725 281q-31 80 -31 186l-225 -14q-115 -6 -168 -51.5t-53 -116.5q0 -72 53 -120t145 -48q90 0 169 51.5t110 112.5z" />
<glyph unicode="&#xe7;" horiz-adv-x="972" d="M881 268l69 -143q-1 -1 -12.5 -12t-19 -18t-25 -20.5t-33.5 -23t-41.5 -22t-51 -20.5t-60.5 -15.5t-72 -11.5l-152 -279h-192l194 281q-178 26 -296.5 161.5t-118.5 339.5q0 114 41.5 210.5t110.5 160.5t158.5 99.5t186.5 35.5q73 0 138 -14t104 -31t73 -40.5t44 -34 t18 -19.5l-70 -143q-118 118 -290 118q-133 0 -224.5 -92.5t-91.5 -242.5q0 -154 88.5 -250.5t229.5 -96.5q53 0 103 12.5t83.5 30.5t59 36.5t37.5 31.5z" />
<glyph unicode="&#xe8;" horiz-adv-x="1083" d="M492 1413l182 -297h-150l-225 297h193zM1024 526l-6 -86h-750q7 -144 92.5 -226.5t221.5 -82.5q43 0 85.5 7.5t73.5 18.5t61.5 25.5t47.5 25.5t34 23t19 13l82 -113l-8 -7q-8 -8 -17.5 -16.5t-26 -21t-36.5 -24t-45.5 -24.5t-57 -23.5t-67 -19t-79.5 -13.5t-91 -5 q-218 0 -352.5 139.5t-134.5 370.5q0 149 67 265.5t179 177.5t247 61q202 0 331.5 -130.5t129.5 -334.5zM270 571h568q-1 44 -18 90t-49 89.5t-88 71.5t-126 28t-126 -26.5t-89 -69.5t-51.5 -90t-20.5 -93z" />
<glyph unicode="&#xe9;" horiz-adv-x="1083" d="M629 1413h192l-225 -297h-150zM1024 526l-6 -86h-750q7 -144 92.5 -226.5t221.5 -82.5q43 0 85.5 7.5t73.5 18.5t61.5 25.5t47.5 25.5t34 23t19 13l82 -113l-8 -7q-8 -8 -17.5 -16.5t-26 -21t-36.5 -24t-45.5 -24.5t-57 -23.5t-67 -19t-79.5 -13.5t-91 -5 q-218 0 -352.5 139.5t-134.5 370.5q0 149 67 265.5t179 177.5t247 61q202 0 331.5 -130.5t129.5 -334.5zM270 571h568q-1 44 -18 90t-49 89.5t-88 71.5t-126 28t-126 -26.5t-89 -69.5t-51.5 -90t-20.5 -93z" />
<glyph unicode="&#xea;" horiz-adv-x="1083" d="M641 1413l186 -297h-143l-123 205l-125 -205h-143l186 297h162zM1024 526l-6 -86h-750q7 -144 92.5 -226.5t221.5 -82.5q43 0 85.5 7.5t73.5 18.5t61.5 25.5t47.5 25.5t34 23t19 13l82 -113l-8 -7q-8 -8 -17.5 -16.5t-26 -21t-36.5 -24t-45.5 -24.5t-57 -23.5t-67 -19 t-79.5 -13.5t-91 -5q-218 0 -352.5 139.5t-134.5 370.5q0 149 67 265.5t179 177.5t247 61q202 0 331.5 -130.5t129.5 -334.5zM270 571h568q-1 44 -18 90t-49 89.5t-88 71.5t-126 28t-126 -26.5t-89 -69.5t-51.5 -90t-20.5 -93z" />
<glyph unicode="&#xeb;" horiz-adv-x="1083" d="M827 1264q0 -48 -31.5 -78.5t-76.5 -30.5q-44 0 -75.5 30.5t-31.5 78.5q0 49 31.5 79.5t75.5 30.5q46 0 77 -30t31 -80zM514 1264q0 -49 -30.5 -79t-75.5 -30q-46 0 -77.5 30.5t-31.5 78.5q0 50 31.5 80t77.5 30q45 0 75.5 -30t30.5 -80zM1024 526l-6 -86h-750 q7 -144 92.5 -226.5t221.5 -82.5q43 0 85.5 7.5t73.5 18.5t61.5 25.5t47.5 25.5t34 23t19 13l82 -113l-8 -7q-8 -8 -17.5 -16.5t-26 -21t-36.5 -24t-45.5 -24.5t-57 -23.5t-67 -19t-79.5 -13.5t-91 -5q-218 0 -352.5 139.5t-134.5 370.5q0 149 67 265.5t179 177.5t247 61 q202 0 331.5 -130.5t129.5 -334.5zM270 571h568q-1 44 -18 90t-49 89.5t-88 71.5t-126 28t-126 -26.5t-89 -69.5t-51.5 -90t-20.5 -93z" />
<glyph unicode="&#xec;" horiz-adv-x="483" d="M158 1413l182 -297h-150l-225 297h193zM340 973v-973h-197v973h197z" />
<glyph unicode="&#xed;" horiz-adv-x="483" d="M326 1413h190l-225 -297h-148zM340 973v-973h-197v973h197z" />
<glyph unicode="&#xee;" horiz-adv-x="483" d="M322 1413l188 -297h-143l-125 205l-125 -205h-144l189 297h160zM340 973v-973h-197v973h197z" />
<glyph unicode="&#xef;" horiz-adv-x="483" d="M506 1264q0 -48 -31.5 -78.5t-77.5 -30.5q-45 0 -75.5 30t-30.5 79q0 50 30.5 80t75.5 30q46 0 77.5 -30t31.5 -80zM193 1264q0 -48 -31.5 -78.5t-75.5 -30.5q-46 0 -77.5 30.5t-31.5 78.5q0 50 31.5 80t77.5 30q44 0 75.5 -30.5t31.5 -79.5zM340 973v-973h-197v973h197z " />
<glyph unicode="&#xf0;" horiz-adv-x="1169" d="M1098 475q0 -214 -148.5 -356t-369.5 -142q-220 0 -365 141.5t-145 356.5q0 104 40.5 196t108 155.5t155.5 100t181 36.5q167 0 272 -97q-93 183 -280 348l-238 -147l-57 92l207 129q-108 84 -201 142l129 88q117 -72 215 -150l248 154l57 -95l-217 -135 q123 -105 205 -223q41 -57 71 -108t63 -126t51 -167t18 -193zM899 479q0 144 -88.5 240t-226.5 96t-227 -96t-89 -240t89 -239t227 -95t226.5 95t88.5 239z" />
<glyph unicode="&#xf1;" horiz-adv-x="1107" d="M776 1370l96 -20q-6 -82 -61.5 -135.5t-126.5 -53.5q-27 0 -53.5 6t-39 11.5t-33 16t-21.5 11.5q-2 1 -16 10t-23 14.5t-23.5 12.5t-29 10.5t-27.5 3.5q-35 0 -59.5 -25.5t-30.5 -62.5l-97 21q6 82 62 136t127 54q26 0 51.5 -6t39.5 -12.5t32.5 -16.5t21.5 -12t28.5 -17 t48 -23.5t44.5 -8.5q35 0 58.5 24.5t31.5 61.5zM981 575v-575h-197v543q0 68 -7.5 115t-28 88.5t-62 62t-104.5 20.5q-66 0 -115.5 -26.5t-78 -74t-42.5 -107.5t-14 -132v-489h-197v973h197l-2 -154h6q40 76 118 124t179 48q100 0 170 -31.5t108 -90.5t54 -130t16 -164z" />
<glyph unicode="&#xf2;" horiz-adv-x="1169" d="M514 1413l180 -297h-147l-225 297h192zM1100 483q0 -224 -147 -365t-367 -141q-221 0 -368.5 141t-147.5 365q0 223 147.5 365.5t368.5 142.5q144 0 261 -63.5t185 -180.5t68 -264zM901 489q0 146 -86 244t-229 98q-144 0 -231 -98t-87 -244q0 -148 86.5 -246t231.5 -98 q143 0 229 98t86 246z" />
<glyph unicode="&#xf3;" horiz-adv-x="1169" d="M657 1413h191l-225 -297h-148zM1100 483q0 -224 -147 -365t-367 -141q-221 0 -368.5 141t-147.5 365q0 223 147.5 365.5t368.5 142.5q144 0 261 -63.5t185 -180.5t68 -264zM901 489q0 146 -86 244t-229 98q-144 0 -231 -98t-87 -244q0 -148 86.5 -246t231.5 -98 q143 0 229 98t86 246z" />
<glyph unicode="&#xf4;" horiz-adv-x="1169" d="M666 1413l186 -297h-143l-123 205l-125 -205h-144l187 297h162zM1100 483q0 -224 -147 -365t-367 -141q-221 0 -368.5 141t-147.5 365q0 223 147.5 365.5t368.5 142.5q144 0 261 -63.5t185 -180.5t68 -264zM901 489q0 146 -86 244t-229 98q-144 0 -231 -98t-87 -244 q0 -148 86.5 -246t231.5 -98q143 0 229 98t86 246z" />
<glyph unicode="&#xf5;" horiz-adv-x="1169" d="M809 1370l96 -20q-6 -82 -61.5 -135.5t-126.5 -53.5q-27 0 -53 6t-39 11.5t-32.5 16t-21.5 11.5q-4 2 -21.5 13t-30 18t-32 13.5t-36.5 6.5q-35 0 -59 -25t-32 -63l-96 21q6 82 62 136t127 54q22 0 42 -3.5t36.5 -10t27.5 -11.5t23.5 -12.5t15.5 -9.5t28.5 -17t48 -23.5 t44.5 -8.5q35 0 59.5 25t30.5 61zM1100 483q0 -224 -147 -365t-367 -141q-221 0 -368.5 141t-147.5 365q0 223 147.5 365.5t368.5 142.5q144 0 261 -63.5t185 -180.5t68 -264zM901 489q0 146 -86 244t-229 98q-144 0 -231 -98t-87 -244q0 -148 86.5 -246t231.5 -98 q143 0 229 98t86 246z" />
<glyph unicode="&#xf6;" horiz-adv-x="1169" d="M848 1264q0 -48 -31 -78.5t-76 -30.5t-76.5 30.5t-31.5 78.5q0 50 31 80t77 30t76.5 -30t30.5 -80zM537 1264q0 -48 -31.5 -78.5t-77.5 -30.5q-44 0 -75 30.5t-31 78.5q0 49 31 79.5t75 30.5q46 0 77.5 -30t31.5 -80zM1100 483q0 -224 -147 -365t-367 -141 q-221 0 -368.5 141t-147.5 365q0 223 147.5 365.5t368.5 142.5q144 0 261 -63.5t185 -180.5t68 -264zM901 489q0 146 -86 244t-229 98q-144 0 -231 -98t-87 -244q0 -148 86.5 -246t231.5 -98q143 0 229 98t86 246z" />
<glyph unicode="&#xf7;" horiz-adv-x="1366" d="M809 1044q0 -53 -36.5 -89.5t-88.5 -36.5q-53 0 -90 37t-37 89q0 51 37.5 88t89.5 37t88.5 -37t36.5 -88zM1219 782v-151h-1072v151h1072zM809 369q0 -53 -36.5 -89t-88.5 -36q-53 0 -90 36.5t-37 88.5q0 54 37 90.5t90 36.5q52 0 88.5 -37t36.5 -90z" />
<glyph unicode="&#xf8;" horiz-adv-x="1169" d="M1026 1012l88 -86l-121 -121q107 -132 107 -322q0 -224 -146.5 -365t-367.5 -141q-187 0 -324 103l-121 -119l-86 84l119 121q-104 132 -104 317q0 223 147.5 365.5t368.5 142.5q179 0 319 -100zM313 303l467 465q-78 63 -194 63q-145 0 -231.5 -97t-86.5 -245 q0 -104 45 -186zM901 489q0 104 -43 183l-467 -463q80 -64 195 -64q143 0 229 98t86 246z" />
<glyph unicode="&#xf9;" horiz-adv-x="1097" d="M463 1413l180 -297h-147l-226 297h193zM963 975v-975h-191l-2 139q-41 -73 -121 -117.5t-180 -44.5q-183 0 -270 113q-72 97 -72 301v584h195v-576q0 -56 7.5 -97.5t28 -80.5t62 -59.5t104.5 -20.5q121 0 181.5 89t60.5 223v522h197z" />
<glyph unicode="&#xfa;" horiz-adv-x="1097" d="M625 1413h192l-225 -297h-150zM963 975v-975h-191l-2 139q-41 -73 -121 -117.5t-180 -44.5q-183 0 -270 113q-72 97 -72 301v584h195v-576q0 -56 7.5 -97.5t28 -80.5t62 -59.5t104.5 -20.5q121 0 181.5 89t60.5 223v522h197z" />
<glyph unicode="&#xfb;" horiz-adv-x="1097" d="M625 1413l188 -297h-143l-125 205l-125 -205h-144l189 297h160zM963 975v-975h-191l-2 139q-41 -73 -121 -117.5t-180 -44.5q-183 0 -270 113q-72 97 -72 301v584h195v-576q0 -56 7.5 -97.5t28 -80.5t62 -59.5t104.5 -20.5q121 0 181.5 89t60.5 223v522h197z" />
<glyph unicode="&#xfc;" horiz-adv-x="1097" d="M809 1264q0 -48 -31.5 -78.5t-77.5 -30.5q-44 0 -75 30.5t-31 78.5q0 49 31 79.5t75 30.5q46 0 77.5 -30t31.5 -80zM496 1264q0 -48 -31 -78.5t-76 -30.5t-76.5 30.5t-31.5 78.5q0 50 31 80t77 30t76.5 -30t30.5 -80zM963 975v-975h-191l-2 139q-41 -73 -121 -117.5 t-180 -44.5q-183 0 -270 113q-72 97 -72 301v584h195v-576q0 -56 7.5 -97.5t28 -80.5t62 -59.5t104.5 -20.5q121 0 181.5 89t60.5 223v522h197z" />
<glyph unicode="&#xfd;" horiz-adv-x="980" d="M565 1413h193l-226 -297h-149zM782 975l203 -2l-469 -1143q-50 -122 -110.5 -173.5t-145.5 -51.5q-48 0 -94 8.5t-68 17.5l-22 9l39 159q53 -22 102 -22q19 0 25.5 0.5t23.5 5.5t27 16t24.5 34.5t26.5 57.5l47 129l-389 955l205 -2l289 -756z" />
<glyph unicode="&#xfe;" horiz-adv-x="1222" d="M1153 487q0 -221 -130 -365.5t-343 -144.5q-220 0 -336 175h-4v-533h-195v1794h195v-592h4q55 79 141.5 124.5t198.5 45.5q140 0 247.5 -66t164.5 -180.5t57 -257.5zM952 489q0 150 -83 246t-226 96t-227 -96t-84 -246t84 -247t227 -97t226 97t83 247z" />
<glyph unicode="&#xff;" horiz-adv-x="980" d="M760 1272q0 -48 -32 -79.5t-77 -31.5t-75.5 31t-30.5 80q0 50 30.5 80t75.5 30q46 0 77.5 -30t31.5 -80zM446 1272q0 -48 -31 -79.5t-75 -31.5q-45 0 -77 31.5t-32 79.5q0 50 31.5 80t77.5 30q44 0 75 -30.5t31 -79.5zM782 975l203 -2l-469 -1143q-50 -122 -110.5 -173.5 t-145.5 -51.5q-48 0 -94 8.5t-68 17.5l-22 9l39 159q53 -22 102 -22q19 0 25.5 0.5t23.5 5.5t27 16t24.5 34.5t26.5 57.5l47 129l-389 955l205 -2l289 -756z" />
<glyph unicode="&#x152;" horiz-adv-x="2031" d="M1944 168v-168h-775v76q-154 -101 -372 -101q-146 0 -277 51t-229.5 143.5t-156.5 231.5t-58 304t58 304t156.5 231t229.5 143t277 51q208 0 370 -97v76h760v-166h-569v-422h534v-166h-534v-491h586zM1159 281v856q-142 125 -362 125q-106 0 -199.5 -38.5t-164.5 -108 t-112.5 -175t-41.5 -231.5t41.5 -231t112 -175t165 -108.5t199.5 -38.5q220 0 362 125z" />
<glyph unicode="&#x153;" horiz-adv-x="1906" d="M1845 526l-4 -86h-751q8 -143 91.5 -226t221.5 -83q44 0 86.5 7.5t73.5 18.5t61 25.5t47 25.5t34 23t19 13l82 -113l-8 -7q-8 -8 -17.5 -16.5t-25.5 -21t-36 -24t-45.5 -24.5t-57 -23.5t-66.5 -19t-79 -13.5t-91 -5q-70 0 -132 17t-102 40.5t-74.5 56.5t-50.5 55.5 t-30 46.5q-60 -100 -162.5 -158t-242.5 -58q-221 0 -368.5 141t-147.5 365q0 223 147.5 365.5t368.5 142.5q137 0 241.5 -58.5t165.5 -158.5q63 101 162.5 159t230.5 58q202 0 330.5 -130.5t128.5 -334.5zM1094 571h565q-1 44 -18 90t-48.5 89.5t-87.5 71.5t-125 28 q-70 0 -126.5 -26.5t-89.5 -69.5t-50.5 -90t-19.5 -93zM901 489q0 146 -86 244t-229 98q-144 0 -231 -98t-87 -244q0 -148 86.5 -246t231.5 -98q143 0 229 98t86 246z" />
<glyph unicode="&#x178;" horiz-adv-x="1177" d="M854 1675q0 -48 -32 -79t-77 -31t-75.5 30.5t-30.5 79.5q0 50 30.5 80.5t75.5 30.5q46 0 77.5 -30.5t31.5 -80.5zM539 1675q0 -49 -31 -79.5t-76 -30.5t-76.5 31t-31.5 79q0 50 31 80.5t77 30.5q45 0 76 -30.5t31 -80.5zM956 1413h224l-492 -821v-592h-199v592l-491 821 h223l367 -649z" />
<glyph unicode="&#x2c6;" horiz-adv-x="686" d="M424 1413l186 -297h-143l-125 205l-123 -205h-143l186 297h162z" />
<glyph unicode="&#x2dc;" horiz-adv-x="686" d="M567 1370l97 -20q-6 -82 -62 -135.5t-127 -53.5q-22 0 -42 3t-37 9.5t-27 11t-23.5 12.5t-15.5 9q-4 2 -22 13.5t-30 18t-32 13t-37 6.5q-35 0 -59.5 -25.5t-30.5 -62.5l-96 21q6 83 61.5 136.5t126.5 53.5q27 0 52.5 -6t39 -12.5t31.5 -16.5t22 -12q3 -2 28.5 -17 t48 -23.5t44.5 -8.5q35 0 58.5 24.5t31.5 61.5z" />
<glyph unicode="&#x2000;" horiz-adv-x="939" />
<glyph unicode="&#x2001;" horiz-adv-x="1878" />
<glyph unicode="&#x2002;" horiz-adv-x="939" />
<glyph unicode="&#x2003;" horiz-adv-x="1878" />
<glyph unicode="&#x2004;" horiz-adv-x="626" />
<glyph unicode="&#x2005;" horiz-adv-x="469" />
<glyph unicode="&#x2006;" horiz-adv-x="313" />
<glyph unicode="&#x2007;" horiz-adv-x="313" />
<glyph unicode="&#x2008;" horiz-adv-x="234" />
<glyph unicode="&#x2009;" horiz-adv-x="375" />
<glyph unicode="&#x200a;" horiz-adv-x="104" />
<glyph unicode="&#x2010;" horiz-adv-x="598" d="M547 643v-164h-496v164h496z" />
<glyph unicode="&#x2011;" horiz-adv-x="598" d="M547 643v-164h-496v164h496z" />
<glyph unicode="&#x2012;" horiz-adv-x="598" d="M547 643v-164h-496v164h496z" />
<glyph unicode="&#x2013;" horiz-adv-x="946" d="M946 637v-154h-946v154h946z" />
<glyph unicode="&#x2014;" horiz-adv-x="1740" d="M1729 637v-154h-1717v154h1717z" />
<glyph unicode="&#x2018;" horiz-adv-x="638" d="M340 1413h156l-138 -438h-200z" />
<glyph unicode="&#x2019;" horiz-adv-x="638" d="M281 1413h200l-182 -438h-156z" />
<glyph unicode="&#x201a;" horiz-adv-x="638" d="M281 199h200l-182 -437h-156z" />
<glyph unicode="&#x201c;" horiz-adv-x="1001" d="M705 1413h149l-137 -438h-195zM342 1413h152l-138 -438h-194z" />
<glyph unicode="&#x201d;" horiz-adv-x="1001" d="M645 1413h195l-183 -438h-151zM285 1413h194l-182 -438h-152z" />
<glyph unicode="&#x201e;" horiz-adv-x="1001" d="M645 199h195l-183 -437h-151zM285 199h194l-182 -437h-152z" />
<glyph unicode="&#x2022;" horiz-adv-x="1107" d="M862 748q0 -125 -91.5 -217.5t-215.5 -92.5q-126 0 -217.5 92.5t-91.5 217.5t91.5 217t217.5 92q124 0 215.5 -92t91.5 -217z" />
<glyph unicode="&#x2026;" horiz-adv-x="1933" d="M1722 109q0 -55 -37.5 -90t-93.5 -35q-57 0 -94 35t-37 90t36.5 88.5t94.5 33.5q56 0 93.5 -33.5t37.5 -88.5zM1098 109q0 -55 -37 -90t-94 -35t-94 35t-37 90t36.5 88.5t94.5 33.5t94.5 -33.5t36.5 -88.5zM473 109q0 -55 -37 -90t-94 -35t-94 35t-37 90t36.5 88.5 t94.5 33.5t94.5 -33.5t36.5 -88.5z" />
<glyph unicode="&#x202f;" horiz-adv-x="375" />
<glyph unicode="&#x2039;" horiz-adv-x="649" d="M283 487l243 -327l-108 -80l-305 407l305 406l106 -80z" />
<glyph unicode="&#x203a;" horiz-adv-x="649" d="M233 893l304 -406l-304 -407l-108 82l242 325l-244 328z" />
<glyph unicode="&#x205f;" horiz-adv-x="469" />
<glyph unicode="&#x20ac;" d="M1044 295l82 -131l-8 -10q-7 -10 -13 -17.5t-19.5 -22t-26.5 -26t-33.5 -26.5t-41.5 -26.5t-49.5 -23.5t-58.5 -19.5t-67.5 -12.5t-77.5 -5q-205 0 -343 141t-179 394h-137v133l123 2q-2 39 -2 72v69h-121v134h139q17 107 64 204t112 164q140 146 348 146q72 0 134 -14.5 t109.5 -42t67.5 -42.5t50 -41l-68 -153q-105 133 -289 133q-123 0 -209.5 -88t-113.5 -266h510v-134h-529v-69l2 -74h527v-133h-510q22 -171 108 -267t217 -96q58 0 109 15t87.5 40t58.5 44.5t42 41.5q4 5 6 7z" />
<glyph unicode="&#x2122;" horiz-adv-x="1740" d="M1563 1413l63 -815h-133l-45 641h-4l-211 -641h-105l-208 641h-7l-43 -641h-133l64 815h180l199 -612h4l196 612h183zM692 1413v-115h-229v-700h-133v700h-230v115h592z" />
<glyph unicode="&#x25fc;" horiz-adv-x="972" d="M0 973h973v-973h-973v973z" />
</font>
</defs>
</svg>
